<svg width="60" height="167" viewBox="0 0 60 167" fill="none" xmlns="http://www.w3.org/2000/svg">
<path fill-rule="evenodd" clip-rule="evenodd" d="M32 19L32 155L29 155L29 19L32 19Z" fill="url(#paint0_linear)"/>
<path fill-rule="evenodd" clip-rule="evenodd" d="M-6.5567e-08 165.5C-1.01779e-07 164.672 0.671572 164 1.5 164L58.5 164C59.3284 164 60 164.672 60 165.5V165.5C60 166.328 59.3284 167 58.5 167L1.5 167C0.671572 167 -2.93554e-08 166.328 -6.5567e-08 165.5V165.5Z" fill="url(#paint1_linear)"/>
<path fill-rule="evenodd" clip-rule="evenodd" d="M11 160.5C11 159.672 11.6716 159 12.5 159L47.5 159C48.3284 159 49 159.672 49 160.5V160.5C49 161.328 48.3284 162 47.5 162L12.5 162C11.6716 162 11 161.328 11 160.5V160.5Z" fill="url(#paint2_linear)"/>
<path fill-rule="evenodd" clip-rule="evenodd" d="M18 155.5C18 154.672 18.6716 154 19.5 154L40.5 154C41.3284 154 42 154.672 42 155.5V155.5C42 156.328 41.3284 157 40.5 157L19.5 157C18.6716 157 18 156.328 18 155.5V155.5Z" fill="url(#paint3_linear)"/>
<circle cx="30" cy="10" r="9" stroke="url(#paint4_linear)" stroke-width="2"/>
<circle cx="30" cy="10" r="5" fill="url(#paint5_linear)"/>
<defs>
<linearGradient id="paint0_linear" x1="31" y1="20.3784" x2="31" y2="153.622" gradientUnits="userSpaceOnUse">
<stop stop-color="#DF7DA3"/>
<stop offset="1" stop-color="#A66ECD"/>
</linearGradient>
<linearGradient id="paint1_linear" x1="0.608108" y1="165" x2="59.3919" y2="165" gradientUnits="userSpaceOnUse">
<stop stop-color="#DF7DA3"/>
<stop offset="1" stop-color="#A66ECD"/>
</linearGradient>
<linearGradient id="paint2_linear" x1="11.3851" y1="160" x2="48.6149" y2="160" gradientUnits="userSpaceOnUse">
<stop stop-color="#DF7DA3"/>
<stop offset="1" stop-color="#A66ECD"/>
</linearGradient>
<linearGradient id="paint3_linear" x1="18.2432" y1="155" x2="41.7568" y2="155" gradientUnits="userSpaceOnUse">
<stop stop-color="#DF7DA3"/>
<stop offset="1" stop-color="#A66ECD"/>
</linearGradient>
<linearGradient id="paint4_linear" x1="30" y1="0" x2="30" y2="20" gradientUnits="userSpaceOnUse">
<stop stop-color="#DF7DA3"/>
<stop offset="1" stop-color="#A66ECD"/>
</linearGradient>
<linearGradient id="paint5_linear" x1="30" y1="5" x2="30" y2="15" gradientUnits="userSpaceOnUse">
<stop stop-color="#DF7DA3"/>
<stop offset="1" stop-color="#A66ECD"/>
</linearGradient>
</defs>
</svg>
