<svg width="89" height="169" viewBox="0 0 89 169" fill="none" xmlns="http://www.w3.org/2000/svg">
<path fill-rule="evenodd" clip-rule="evenodd" d="M46 87.5L46 169L43 169L43 87.5L46 87.5Z" fill="url(#paint0_linear)"/>
<path fill-rule="evenodd" clip-rule="evenodd" d="M44.5 87C67.9721 87 87 67.9721 87 44.5C87 21.0279 67.9721 2 44.5 2C21.0279 2 2 21.0279 2 44.5C2 67.9721 21.0279 87 44.5 87ZM44.5 89C69.0767 89 89 69.0767 89 44.5C89 19.9233 69.0767 0 44.5 0C19.9233 0 0 19.9233 0 44.5C0 69.0767 19.9233 89 44.5 89Z" fill="url(#paint1_linear)"/>
<path d="M67 44.5C67 56.3741 57.1503 66 45 66C32.8497 66 23 56.3741 23 44.5C23 32.6259 32.8497 23 45 23C57.1503 23 67 32.6259 67 44.5Z" fill="url(#paint2_linear)"/>
<defs>
<linearGradient id="paint0_linear" x1="45" y1="89.0475" x2="45" y2="167.453" gradientUnits="userSpaceOnUse">
<stop stop-color="#DF7DA3"/>
<stop offset="1" stop-color="#A66ECD"/>
</linearGradient>
<linearGradient id="paint1_linear" x1="44.5" y1="0" x2="44.5" y2="89" gradientUnits="userSpaceOnUse">
<stop stop-color="#DF7DA3"/>
<stop offset="1" stop-color="#A66ECD"/>
</linearGradient>
<linearGradient id="paint2_linear" x1="45" y1="23" x2="45" y2="66" gradientUnits="userSpaceOnUse">
<stop stop-color="#C075BB"/>
<stop offset="1" stop-color="#A66ECD"/>
</linearGradient>
</defs>
</svg>
