<svg width="101" height="9" viewBox="0 0 101 9" fill="none" xmlns="http://www.w3.org/2000/svg">
<path d="M8.40905 7.08972H3.49031L2.6581 8.69717H0L4.62063 0.204102H7.27873L11.8869 8.69717H9.22884L8.40905 7.08972ZM4.33495 5.4343H7.552L5.94968 2.30338L4.33495 5.4343Z" fill="white"/>
<path d="M23.551 5.83016C23.551 6.25001 23.4392 6.65787 23.2281 7.02975C23.0045 7.40162 22.6815 7.7375 22.2468 8.01341C21.8121 8.28931 21.2655 8.51723 20.6072 8.68517C19.9613 8.84112 19.1912 8.92509 18.3218 8.92509C17.4523 8.92509 16.6822 8.84112 16.0239 8.68517C15.3655 8.51723 14.819 8.30131 14.3843 8.01341C13.9496 7.7375 13.6266 7.40162 13.403 7.02975C13.1794 6.65787 13.0801 6.25001 13.0801 5.83016V0.204102H15.4525V5.01444C15.4525 5.30234 15.4898 5.56625 15.5643 5.83016C15.6388 6.08207 15.7879 6.298 15.9866 6.48993C16.1978 6.68187 16.4834 6.82582 16.8561 6.94578C17.2287 7.05374 17.7131 7.11372 18.3218 7.11372C18.918 7.11372 19.4024 7.05374 19.775 6.94578C20.1476 6.83781 20.4333 6.68187 20.6445 6.48993C20.8556 6.298 20.9923 6.08207 21.0668 5.83016C21.1413 5.57825 21.1786 5.30234 21.1786 5.01444V0.204102H23.5634V5.83016H23.551Z" fill="white"/>
<path d="M31.1763 2.05146V8.69717H28.7915V2.05146H25.0527V0.204102H34.9275V2.05146H31.1763Z" fill="white"/>
<path d="M44.9522 8.69717V5.15839H38.8907V8.69717H36.5059V0.204102H38.8907V3.28704H44.9522V0.204102H47.337V8.69717H44.9522Z" fill="white"/>
<path d="M50.082 8.69717V0.204102H59.0128V2.01548H52.529V3.41899H58.6774V5.23037H52.529V6.8858H59.0997V8.69717H50.082Z" fill="white"/>
<path d="M69.7446 8.69717L63.795 2.86718V8.69717H61.4102V0.204102H63.9937L69.9434 6.05808V0.204102H72.3158V8.69717H69.7446Z" fill="white"/>
<path d="M80.0162 2.05146V8.69717H77.6313V2.05146H73.8926V0.204102H83.7673V2.05146H80.0162Z" fill="white"/>
<path d="M85.3457 8.69717V0.204102H87.7181V8.69717H85.3457Z" fill="white"/>
<path d="M100.2 8.1092C99.8896 8.22916 99.579 8.34912 99.2685 8.44509C98.958 8.54105 98.635 8.62502 98.2997 8.697C97.9643 8.76897 97.6165 8.82895 97.2439 8.86494C96.8713 8.90093 96.4862 8.92492 96.0515 8.92492C95.1571 8.92492 94.3249 8.82895 93.5673 8.64902C92.8096 8.45708 92.1637 8.18118 91.6172 7.8093C91.0706 7.43743 90.6483 6.96959 90.3502 6.41779C90.0397 5.85398 89.8906 5.2062 89.8906 4.46246C89.8906 3.71872 90.0397 3.07094 90.3502 2.50713C90.6483 1.94333 91.0706 1.48749 91.6172 1.11561C92.1637 0.743743 92.8096 0.455843 93.5673 0.275905C94.3249 0.0839709 95.1571 0 96.0515 0C96.4738 0 96.8713 0.0239917 97.2439 0.0599793C97.6165 0.0959669 97.9643 0.155946 98.2997 0.227921C98.635 0.299896 98.958 0.383868 99.2685 0.479834C99.579 0.575801 99.8896 0.69576 100.2 0.815718V2.87901C99.9517 2.74705 99.7033 2.62709 99.43 2.50713C99.1567 2.37518 98.8586 2.26722 98.5357 2.17125C98.2127 2.06329 97.8525 1.97932 97.4675 1.91934C97.0824 1.84736 96.6353 1.82337 96.1508 1.82337C95.4056 1.82337 94.7845 1.89535 94.2877 2.05129C93.7908 2.19524 93.4058 2.39917 93.1077 2.63909C92.8096 2.891 92.5984 3.16691 92.4866 3.4908C92.3624 3.81468 92.3003 4.13857 92.3003 4.47446C92.3003 4.70238 92.3252 4.9303 92.3748 5.14622C92.4245 5.36215 92.5115 5.56608 92.6357 5.77001C92.7599 5.96194 92.9089 6.14188 93.1077 6.30982C93.3064 6.47776 93.5424 6.62171 93.8281 6.72968C94.1138 6.84964 94.4491 6.9456 94.8342 7.01758C95.2193 7.08955 95.6664 7.11355 96.1633 7.11355C96.6477 7.11355 97.0948 7.08955 97.4799 7.02957C97.8649 6.96959 98.2252 6.88562 98.5481 6.78966C98.871 6.69369 99.1692 6.57373 99.4424 6.45377C99.7157 6.32182 99.9641 6.18986 100.213 6.06991V8.1092H100.2Z" fill="white"/>
</svg>
