<svg width="76" height="76" viewBox="0 0 76 76" fill="none" xmlns="http://www.w3.org/2000/svg">
<path d="M12.9935 21.9935L13.0776 21.9094C13.6827 21.345 14.4931 21 15.3825 21H61.0891C62.0211 21 62.8676 21.3786 63.4803 21.9913C64.0935 22.6045 64.4723 23.4497 64.4723 24.3817V51.2846C64.4723 52.2166 64.0935 53.0619 63.4803 53.6751C62.8672 54.2882 62.0213 54.6671 61.0891 54.6671H15.3825C14.4505 54.6671 13.6052 54.2883 12.992 53.6751C12.3788 53.0619 12 52.2166 12 51.2846V24.3817C12 23.4541 12.3783 22.6086 12.9935 21.9935Z" stroke="white" stroke-width="2"/>
<path d="M24.4682 37.4352H24.4683C25.6453 37.4352 26.4389 36.8612 26.9922 35.9995C27.5596 35.1159 27.8593 33.9432 27.9849 32.8447L27.9849 32.8447C28.1354 31.5301 27.8917 30.4474 27.3265 29.7051C26.7721 28.9772 25.8503 28.5001 24.4683 28.5001C23.0867 28.5001 22.1648 28.9772 21.6104 29.7051C21.0451 30.4474 20.8012 31.53 20.9517 32.8444L24.4682 37.4352ZM24.4682 37.4352C23.2917 37.4355 22.4985 36.8616 21.9453 35.9998M24.4682 37.4352L21.9453 35.9998M21.9453 35.9998C21.3779 35.1161 21.078 33.9432 20.9517 32.8446L21.9453 35.9998Z" stroke="url(#paint0_linear)"/>
<path d="M32.382 45.0161C32.3248 45.2256 32.2181 45.4094 32.0457 45.5617C31.9134 45.6786 31.7647 45.7559 31.6311 45.814C31.5183 45.8631 31.3918 45.9083 31.2737 45.9505C31.2552 45.9571 31.2368 45.9637 31.2188 45.9702C30.4756 46.2384 29.7137 46.4355 28.9568 46.595L32.382 45.0161ZM32.382 45.0161H32.4519L32.4338 44.499L32.382 45.0161ZM18.9279 39.0082L18.9278 39.0083C18.5917 39.259 18.3446 39.6974 18.159 40.2638C17.9897 40.7803 17.8917 41.3366 17.8027 41.8413C17.7951 41.8845 17.7875 41.9274 17.78 41.9698L18.9279 39.0082ZM18.9279 39.0082C19.1331 38.8551 19.382 38.7437 19.6797 38.6376C19.7783 38.6025 19.8956 38.5639 20.0197 38.5232C20.2243 38.4559 20.4475 38.3825 20.6358 38.3085C20.817 38.2376 20.9904 38.1654 21.158 38.0885C22.0553 38.9378 23.1858 39.3816 24.4673 39.3816C25.7488 39.3816 26.8792 38.9378 27.7765 38.0885C27.9441 38.1654 28.1175 38.2376 28.2987 38.3085C28.4871 38.3826 28.7104 38.4559 28.9151 38.5232C29.0391 38.564 29.1563 38.6025 29.2549 38.6376C29.5526 38.7436 29.8018 38.8551 30.0074 39.0083L18.9279 39.0082ZM17.5009 44.5331L17.5008 44.5332C17.4963 44.6651 17.5109 44.7335 17.5219 44.7657C17.5303 44.79 17.5383 44.8 17.5516 44.8118C17.5722 44.8299 17.6135 44.8577 17.7031 44.8968C17.7824 44.9314 17.8725 44.9638 17.9929 45.0071C18.0128 45.0143 18.0336 45.0217 18.0553 45.0296C18.7417 45.2773 19.4554 45.4632 20.1841 45.6165L20.1846 45.6166C21.6031 45.9165 23.0436 46.1415 24.4674 46.1525C25.8902 46.1422 27.3312 45.9165 28.75 45.6166L28.7503 45.6165C29.4785 45.4632 30.1929 45.2773 30.8792 45.0296L30.8799 45.0293C30.901 45.0218 30.9213 45.0145 30.9407 45.0075C31.062 44.9641 31.1527 44.9316 31.2323 44.897C31.3219 44.8581 31.3632 44.8303 31.3836 44.8122C31.3969 44.8005 31.4049 44.7906 31.4133 44.7662C31.4244 44.7339 31.4389 44.6654 31.4344 44.5332L17.5009 44.5331ZM17.5009 44.5331C17.5299 43.6796 17.6299 42.8183 17.78 41.97L17.5009 44.5331ZM31.9091 44.0161H31.4167L31.4343 44.5304C31.4044 43.6777 31.3044 42.8172 31.1546 41.97L31.9091 44.0161Z" stroke="url(#paint1_linear)"/>
<rect x="36.5" y="30.5" width="22" height="5" rx="2.5" stroke="white"/>
<rect x="36.5" y="38.5" width="11" height="5" rx="2.5" stroke="white"/>
<defs>
<linearGradient id="paint0_linear" x1="24.4683" y1="28.0001" x2="24.4683" y2="37.9352" gradientUnits="userSpaceOnUse">
<stop stop-color="#DF7DA3"/>
<stop offset="1" stop-color="#A66ECD"/>
</linearGradient>
<linearGradient id="paint1_linear" x1="24.4676" y1="37.4805" x2="24.4676" y2="46.6525" gradientUnits="userSpaceOnUse">
<stop stop-color="#DF7DA3"/>
<stop offset="1" stop-color="#A66ECD"/>
</linearGradient>
</defs>
</svg>
