<svg width="76" height="76" viewBox="0 0 76 76" fill="none" xmlns="http://www.w3.org/2000/svg">
<path d="M22.9789 35.4469V34.8812L22.4939 34.5898L14.4405 29.7506L14.4226 29.7398L14.4042 29.7298C14.3095 29.6781 14.2264 29.6075 14.1602 29.5224C14.0952 29.4388 14.0478 29.343 14.0208 29.2407C13.9975 29.1418 13.9938 29.0392 14.0096 28.9387C14.0256 28.8372 14.0615 28.7398 14.115 28.652L23.0411 14.3702L23.0415 14.3697C23.1143 14.253 23.2165 14.1575 23.3378 14.0927C23.4592 14.0278 23.5954 13.996 23.7329 14.0004L23.7487 14.0009H23.7646H30.9073C31.1157 14.0009 31.3155 14.0837 31.4628 14.231C31.6102 14.3784 31.693 14.5782 31.693 14.7866C31.693 15.755 31.9586 16.575 32.4373 17.2398C32.9086 17.8943 33.5445 18.3407 34.2013 18.6448C35.4896 19.2415 37.0041 19.3579 38.05 19.3579C39.0959 19.3579 40.6104 19.2415 41.8988 18.6448C42.5556 18.3407 43.1914 17.8943 43.6628 17.2398C44.1415 16.575 44.4071 15.755 44.4071 14.7866C44.4071 14.5782 44.4898 14.3784 44.6372 14.231C44.7845 14.0837 44.9844 14.0009 45.1927 14.0009L52.3355 14.0009L52.3375 14.0009C52.471 14.0006 52.6024 14.0344 52.7192 14.099C52.8361 14.1636 52.9345 14.2569 53.0053 14.3702L61.93 28.6496C61.9305 28.6505 61.931 28.6513 61.9316 28.6522C61.985 28.7399 62.0208 28.8372 62.0368 28.9387C62.053 29.0412 62.0487 29.1459 62.0242 29.2467L62.0242 29.2467L62.0223 29.2548C61.9983 29.3573 61.954 29.4539 61.8919 29.5389C61.8298 29.624 61.7513 29.6957 61.6609 29.7497L61.6595 29.7506L53.6061 34.5898L53.1212 34.8812V35.4469V61.2143C53.1212 61.4227 53.0384 61.6225 52.891 61.7699C52.7437 61.9172 52.5438 62 52.3355 62H23.7646C23.5562 62 23.3563 61.9172 23.209 61.7699C23.0616 61.6225 22.9789 61.4227 22.9789 61.2143V35.4469Z" stroke="white" stroke-width="2"/>
<path d="M47.4994 27.9998H47.1613C45.6185 24.4695 42.099 22 37.9997 22C33.9 22 30.3809 24.4695 28.8374 27.9998H28.4999C27.6747 27.9998 27 28.6747 27 29.4997V32.4996C27 33.2214 27.5157 33.8267 28.1961 33.9683C28.346 34.7195 28.5863 35.4371 28.8944 36.1168C28.325 36.9967 27.9999 37.9702 27.9999 38.9994C27.9999 42.8645 32.4775 45.9991 37.9997 45.9991C43.5218 45.9991 47.9992 42.8645 47.9992 38.9994C47.9992 37.9699 47.674 36.9964 47.1049 36.1168C47.4133 35.4371 47.6536 34.7195 47.803 33.9683C48.484 33.8267 48.9993 33.2214 48.9993 32.4996V29.4997C48.9993 28.6747 48.3244 27.9998 47.4994 27.9998ZM37.9997 43.999C33.6633 43.999 29.9999 41.7092 29.9999 38.9994C29.9999 38.7111 30.0497 38.4292 30.1289 38.1529C31.9591 40.4907 34.8006 41.9993 37.9997 41.9993C41.1987 41.9993 44.0405 40.4907 45.8705 38.1529C45.9497 38.4292 45.9995 38.7111 45.9995 38.9994C45.9995 41.7092 42.3363 43.999 37.9997 43.999ZM37.9997 39.9993C33.5817 39.9993 29.9999 36.4165 29.9999 31.9986C29.9999 27.5807 33.5817 24 37.9997 24C42.4176 24 45.9995 27.581 45.9995 31.9986C45.9995 36.4162 42.4176 39.9993 37.9997 39.9993Z" fill="url(#paint0_linear)"/>
<path d="M41.9995 29.0005H34.0003C32.8952 29.0005 32 29.896 32 30.9993V31.9992C32 35.3125 34.6864 37.9998 37.9998 37.9998C41.3131 37.9998 43.9995 35.3125 43.9995 32.0001V31.0005C43.9995 29.896 43.1041 29.0005 41.9995 29.0005ZM41.9995 32.0004C41.9995 34.2062 40.2059 36.0001 37.9998 36.0001C35.794 36.0001 33.9997 34.2053 33.9997 31.9992V30.9993L41.9995 31.0005V32.0004Z" fill="url(#paint1_linear)"/>
<defs>
<linearGradient id="paint0_linear" x1="37.9997" y1="22" x2="37.9997" y2="45.9991" gradientUnits="userSpaceOnUse">
<stop stop-color="#DF7DA3"/>
<stop offset="1" stop-color="#A66ECD"/>
</linearGradient>
<linearGradient id="paint1_linear" x1="37.9998" y1="29.0005" x2="37.9998" y2="37.9998" gradientUnits="userSpaceOnUse">
<stop stop-color="#DF7DA3"/>
<stop offset="1" stop-color="#A66ECD"/>
</linearGradient>
</defs>
</svg>
