<svg width="76" height="76" viewBox="0 0 76 76" fill="none" xmlns="http://www.w3.org/2000/svg">
<path d="M44.625 17H32.625" stroke="white" stroke-width="2" stroke-linecap="round" stroke-linejoin="round"/>
<path d="M38.625 22V17" stroke="white" stroke-width="2" stroke-linecap="round" stroke-linejoin="round"/>
<path d="M54.661 55H52V57.66H54.661V55Z" fill="white"/>
<path d="M65.661 39H63V41.66H65.661V39Z" fill="white"/>
<path d="M38.625 22C29.4575 22 22 29.4575 22 38.625C22 47.7925 29.4575 55.25 38.625 55.25C47.7937 55.25 55.25 47.7925 55.25 38.625C55.25 29.4575 47.7937 22 38.625 22ZM23.7967 38.625C23.7967 37.808 23.8798 37.0136 24.0092 36.2334C24.0104 36.2464 24.0164 36.2619 24.0176 36.2761C24.2206 38.4196 25.1849 39.0442 26.408 39.8339C26.731 40.0429 27.0825 40.2685 27.4566 40.5476C28.536 41.3503 28.5016 42.1554 28.4541 43.2717C28.4362 43.6766 28.4184 44.0946 28.4481 44.5589C28.5111 45.4923 29.0858 46.054 29.6427 46.5979L29.8708 46.8223C30.5227 47.4826 30.7269 47.9207 30.9763 48.8221C31.1996 49.6319 31.5321 50.2851 31.8848 50.9786L32.1686 51.5509C32.2576 51.7386 32.3455 51.9203 32.4643 52.0948C27.358 49.7495 23.7967 44.6005 23.7967 38.625ZM38.625 53.4521C37.5657 53.4521 36.535 53.3358 35.5375 53.1256L35.5316 53.1125C35.3582 52.7895 35.1516 52.5128 34.9699 52.2718C34.5091 51.6566 34.2051 51.2529 34.54 50.4145C34.7027 50.0084 35.1919 49.4514 35.7097 48.8624C36.9114 47.4944 38.4077 45.7927 37.2879 44.2953C36.8141 43.6624 35.9781 43.4926 35.1706 43.3275C34.5032 43.1909 33.8132 43.0508 33.4036 42.6542C33.286 42.539 33.172 42.4238 33.0568 42.3063C32.5426 41.7814 32.0118 41.2387 31.2174 40.9679C30.1201 40.5962 29.3138 38.9183 29.0918 37.846C28.8911 36.8817 29.3482 36.3604 29.9277 35.699C30.2377 35.3463 30.5571 34.9817 30.8101 34.5151C30.9609 34.2384 31.1675 34.0792 31.4668 33.8691C31.823 33.6197 32.3324 33.5247 32.8728 33.4249C33.5579 33.2991 34.2657 33.1672 34.7395 32.6839C35.0411 32.3787 35.1848 32.0344 35.1694 31.6615C35.1349 30.8136 34.2764 30.0762 33.5876 29.4848C33.4012 29.3245 33.2326 29.1808 33.1091 29.0549C32.7872 28.7284 32.716 28.5099 32.7528 28.4208C32.8134 28.2759 33.2005 28.1216 33.7978 28.1216C34.4486 28.1216 35.1171 28.2997 35.4271 28.5562C35.8605 28.916 36.2405 29.0918 36.5884 29.0918C37.2962 29.0918 37.6334 28.4303 37.96 27.7914C38.0669 27.5836 38.1761 27.3687 38.3008 27.1727C38.4362 26.959 38.5989 26.7631 38.7568 26.5731C39.3149 25.8938 40.0096 25.0495 38.8862 23.9368C38.8459 23.8964 38.7841 23.8477 38.7354 23.805C41.5926 23.8264 44.2538 24.6671 46.5112 26.0933C46.4684 26.123 46.3901 26.1562 46.2274 26.1562C45.9602 26.1562 45.617 26.066 45.2809 25.9805C44.9401 25.8926 44.6183 25.8083 44.2656 25.8083C44.2609 25.8083 44.2573 25.8083 44.2514 25.8083C43.7503 25.8392 43.375 26.0007 43.1363 26.2881C42.7159 26.7892 42.805 27.5266 42.8893 28.2391C42.9558 28.7889 43.0223 29.3566 42.8216 29.6511C42.6506 29.8981 42.5319 30.1653 42.4119 30.4218C42.292 30.6866 42.1804 30.9371 42.0248 31.1461C41.9524 31.2411 41.8313 31.3421 41.7006 31.4489C41.4287 31.671 41.1259 31.9216 41.0404 32.3134C40.9442 32.7742 41.0855 33.1388 41.1983 33.4333C41.3289 33.7729 41.418 33.9973 41.2244 34.35C41.0926 34.5922 40.8836 34.7822 40.6604 34.9829C40.3113 35.3 39.9146 35.6586 39.7935 36.2773C39.5821 37.3567 39.7887 38.9575 40.5891 39.9313C41.0178 40.4538 41.5771 40.7292 42.2267 40.7292C42.4856 40.7269 42.7468 40.7043 43.0009 40.6829C43.2467 40.6604 43.4902 40.639 43.7277 40.639C44.3986 40.639 44.8036 40.8385 45.123 41.323C45.6313 42.0996 45.4032 42.8466 45.1456 43.7111C44.9674 44.3048 44.7798 44.9188 44.8428 45.5719C44.8606 45.7536 44.8629 45.9756 44.8665 46.2096C44.8808 47.1512 44.8974 48.5739 46.0303 48.5739C46.3509 48.5739 46.7214 48.448 47.1643 48.1844C47.8044 47.8079 48.0288 47.1714 48.2259 46.6109C48.3542 46.2464 48.4753 45.902 48.6938 45.6324L48.9491 45.3166C49.5797 44.5399 49.8991 44.1504 50.2459 42.9368C50.3587 42.5426 50.5677 42.1839 50.7886 41.8051C50.9881 41.4619 51.1959 41.1057 51.336 40.7079C51.4726 40.3124 51.4963 39.936 51.5141 39.5702C51.5403 39.1095 51.5628 38.7129 51.811 38.3281C51.9309 38.1405 52.2955 37.5705 52.6624 37.5705C52.7432 37.5705 52.8287 37.5954 52.9213 37.6489C53.0923 37.7463 53.2728 37.9481 53.4331 38.1714C53.4379 38.3234 53.4569 38.4706 53.4569 38.6226C53.4521 46.8009 46.8009 53.4521 38.625 53.4521Z" fill="url(#paint0_linear)"/>
<path d="M17.661 22H15V24.66H17.661V22Z" fill="white"/>
<path d="M63.0754 22.872C63.7154 22.831 64.2174 22.313 64.2424 21.673C64.2674 21.033 63.8024 20.477 63.1674 20.386C63.0094 20.364 59.2804 19.788 58.8644 16.109C58.7924 15.471 58.2784 15.015 57.6064 15C56.9634 15.008 56.4324 15.501 56.3764 16.14C56.3624 16.303 55.9804 20.126 52.1644 20.378C51.5184 20.421 51.0174 20.949 51.0004 21.596C50.9844 22.242 51.4684 22.794 52.1104 22.868C52.2724 22.887 56.0834 23.367 56.3764 27.097C56.4254 27.73 56.9404 28.225 57.5754 28.248C57.5914 28.249 57.6064 28.249 57.6224 28.249C58.2364 28.249 58.7634 27.801 58.8564 27.189C58.8634 27.148 59.5274 23.095 63.0754 22.872ZM57.7004 23.481C57.1824 22.73 56.5404 22.139 55.8604 21.682C56.6224 21.149 57.2124 20.486 57.6614 19.786C58.1944 20.523 58.8424 21.108 59.5164 21.561C58.7644 22.1 58.1654 22.774 57.7004 23.481Z" fill="white"/>
<path d="M23.1604 53.384C23.0024 53.363 19.2854 52.827 18.8634 49.109C18.7914 48.471 18.2944 48.006 17.6054 48C16.9644 48.008 16.4324 48.5 16.3764 49.139C16.3614 49.302 15.9804 53.125 12.1644 53.377C11.5184 53.42 11.0164 53.948 11.0004 54.595C10.9844 55.242 11.4684 55.793 12.1104 55.867C12.5154 55.914 16.0874 56.428 16.3754 60.097C16.4254 60.73 16.9404 61.224 17.5744 61.247C17.5904 61.248 17.6054 61.249 17.6214 61.249C18.2364 61.249 18.7634 60.8 18.8564 60.188C18.8634 60.147 19.5274 56.094 23.0744 55.871C23.7174 55.831 24.2224 55.309 24.2454 54.667C24.2684 54.025 23.7994 53.47 23.1604 53.384ZM17.6994 56.481C17.1814 55.73 16.5394 55.138 15.8604 54.682C16.6214 54.149 17.2124 53.485 17.6604 52.786C18.1934 53.523 18.8424 54.107 19.5154 54.562C18.7634 55.1 18.1654 55.773 17.6994 56.481Z" fill="white"/>
<defs>
<linearGradient id="paint0_linear" x1="38.625" y1="22" x2="38.625" y2="55.25" gradientUnits="userSpaceOnUse">
<stop stop-color="#C075BB"/>
<stop offset="1" stop-color="#A66ECD"/>
</linearGradient>
</defs>
</svg>
