<svg width="20" height="20" viewBox="0 0 20 20" fill="none" xmlns="http://www.w3.org/2000/svg">
<path fill-rule="evenodd" clip-rule="evenodd" d="M11.5 2C11.5 1.17157 10.8284 0.5 10 0.5C9.17157 0.5 8.5 1.17157 8.5 2V8.5L2 8.5C1.17157 8.5 0.5 9.17157 0.5 10C0.5 10.8284 1.17157 11.5 2 11.5H8.5V18C8.5 18.8284 9.17157 19.5 10 19.5C10.8284 19.5 11.5 18.8284 11.5 18V11.5H18C18.8284 11.5 19.5 10.8284 19.5 10C19.5 9.17157 18.8284 8.5 18 8.5L11.5 8.5V2Z" fill="url(#paint0_linear)"/>
<defs>
<linearGradient id="paint0_linear" x1="18" y1="10.5" x2="2" y2="10.5" gradientUnits="userSpaceOnUse">
<stop stop-color="#DF7DA3"/>
<stop offset="1" stop-color="#A66ECD"/>
</linearGradient>
</defs>
</svg>
