<svg fill="none" height="12" viewBox="0 0 166 12" width="166" xmlns="http://www.w3.org/2000/svg"><g fill="#000" fill-opacity=".2"><path d="m0 8.64v-8.4h2.76c.656 0 1.196.108 1.62.324s.736.508.936.876c.208.368.312.784.312 1.248 0 .456-.1.868-.3 1.236s-.512.664-.936.888c-.424.216-.968.324-1.632.324h-1.752v3.504zm1.008-4.356h1.728c.672 0 1.148-.14 1.428-.42.288-.288.432-.68.432-1.176 0-.504-.144-.896-.432-1.176-.28-.288-.756-.432-1.428-.432h-1.728z"/><path d="m9.24966 8.784c-.56 0-1.064-.128-1.512-.384s-.804-.616-1.068-1.08c-.256-.472-.384-1.024-.384-1.656s.132-1.18.396-1.644c.264-.472.62-.836 1.068-1.092.456-.256.964-.384 1.524-.384s1.06404.128 1.51204.384.8.62 1.056 1.092c.264.464.396 1.012.396 1.644s-.132 1.184-.396 1.656c-.264.464-.624.824-1.08 1.08-.448.256-.95204.384-1.51204.384zm0-.864c.344 0 .664-.084.96004-.252.296-.168.536-.42.72-.756s.276-.752.276-1.248-.092-.912-.276-1.248c-.176-.336-.412-.588-.708-.756-.29604-.168-.61204-.252-.94804-.252-.344 0-.664.084-.96.252s-.536.42-.72.756-.276.752-.276 1.248.092.912.276 1.248.42.588.708.756c.296.168.612.252.948.252z"/><path d="m14.6166 8.64-1.74-5.952h1.008l1.26 4.668 1.392-4.668h1.14l1.404 4.668 1.248-4.668h1.02l-1.74 5.952h-1.032l-1.464-4.908-1.464 4.908z"/><path d="m24.9168 8.784c-.568 0-1.072-.128-1.512-.384-.44-.264-.788-.628-1.044-1.092-.248-.464-.372-1.012-.372-1.644 0-.624.124-1.168.372-1.632.248-.472.592-.836 1.032-1.092.448-.264.964-.396 1.548-.396.576 0 1.072.132 1.488.396.424.256.748.596.972 1.02s.336.88.336 1.368c0 .088-.004.176-.012.264v.3h-4.74c.024.456.128.836.312 1.14.192.296.428.52.708.672.288.152.592.228.912.228.416 0 .764-.096 1.044-.288s.484-.452.612-.78h.996c-.16.552-.468 1.012-.924 1.38-.448.36-1.024.54-1.728.54zm0-5.388c-.48 0-.908.148-1.284.444-.368.288-.58.712-.636 1.272h3.744c-.024-.536-.208-.956-.552-1.26s-.768-.456-1.272-.456z"/><path d="m29.0728 8.64v-5.952h.912l.084 1.14c.184-.392.464-.704.84-.936s.84-.348 1.392-.348v1.056h-.276c-.352 0-.676.064-.972.192-.296.12-.532.328-.708.624s-.264.704-.264 1.224v3z"/><path d="m35.8855 8.784c-.568 0-1.072-.128-1.512-.384-.44-.264-.788-.628-1.044-1.092-.248-.464-.372-1.012-.372-1.644 0-.624.124-1.168.372-1.632.248-.472.592-.836 1.032-1.092.448-.264.964-.396 1.548-.396.576 0 1.072.132 1.488.396.424.256.748.596.972 1.02s.336.88.336 1.368c0 .088-.004.176-.012.264v.3h-4.74c.024.456.128.836.312 1.14.192.296.428.52.708.672.288.152.592.228.912.228.416 0 .764-.096 1.044-.288s.484-.452.612-.78h.996c-.16.552-.468 1.012-.924 1.38-.448.36-1.024.54-1.728.54zm0-5.388c-.48 0-.908.148-1.284.444-.368.288-.58.712-.636 1.272h3.744c-.024-.536-.208-.956-.552-1.26s-.768-.456-1.272-.456z"/><path d="m42.7416 8.784c-.592 0-1.112-.136-1.56-.408-.44-.272-.784-.644-1.032-1.116-.24-.472-.36-1.008-.36-1.608s.124-1.132.372-1.596c.248-.472.592-.84 1.032-1.104.44-.272.96-.408 1.56-.408.488 0 .92.1 1.296.3s.668.48.876.84v-3.684h1.008v8.64h-.912l-.096-.984c-.192.288-.468.548-.828.78s-.812.348-1.356.348zm.108-.876c.4 0 .752-.092 1.056-.276.312-.192.552-.456.72-.792.176-.336.264-.728.264-1.176s-.088-.84-.264-1.176c-.168-.336-.408-.596-.72-.78-.304-.192-.656-.288-1.056-.288-.392 0-.744.096-1.056.288-.304.184-.544.444-.72.78-.168.336-.252.728-.252 1.176s.084.84.252 1.176c.176.336.416.6.72.792.312.184.664.276 1.056.276z"/><path d="m53.9325 8.784c-.488 0-.924-.1-1.308-.3-.376-.2-.664-.48-.864-.84l-.096.996h-.912v-8.64h1.008v3.672c.192-.288.464-.548.816-.78.36-.232.816-.348 1.368-.348.592 0 1.108.136 1.548.408s.78.644 1.02 1.116c.248.472.372 1.008.372 1.608s-.124 1.136-.372 1.608c-.24.464-.584.832-1.032 1.104-.44.264-.956.396-1.548.396zm-.108-.876c.4 0 .752-.092 1.056-.276.304-.192.544-.456.72-.792s.264-.728.264-1.176-.088-.84-.264-1.176-.416-.596-.72-.78c-.304-.192-.656-.288-1.056-.288s-.752.096-1.056.288c-.304.184-.544.444-.72.78s-.264.728-.264 1.176.088.84.264 1.176.416.6.72.792c.304.184.656.276 1.056.276z"/><path d="m58.4552 11.28 1.476-3.216h-.348l-2.364-5.376h1.092l1.968 4.632 2.088-4.632h1.044l-3.9 8.592z"/><path d="m73.5204 7.7298h-4.9188l-.8322 1.60745h-2.6581l4.6207-8.49307h2.6581l4.6082 8.49307h-2.6581zm-4.0741-1.65543h3.217l-1.6023-3.13092z"/><path d="m88.6618 6.47024c0 .41985-.1118.82771-.323 1.19958-.2235.37188-.5465.70776-.9812.98367-.4348.2759-.9813.50382-1.6396.67176-.6459.15595-1.416.23992-2.2855.23992-.8694 0-1.6395-.08397-2.2979-.23992-.6583-.16794-1.2048-.38386-1.6395-.67176-.4348-.27591-.7577-.61179-.9813-.98367-.2236-.37187-.3229-.77973-.3229-1.19958v-5.62606h2.3724v4.81034c0 .2879.0372.55181.1118.81572.0745.25191.2235.46784.4223.65977.2111.19193.4968.33588.8695.45584.3726.10797.857.16795 1.4656.16795.5962 0 1.0807-.05998 1.4533-.16795.3726-.10796.6583-.26391.8695-.45584.2111-.19193.3478-.40786.4223-.65977.0745-.25192.1118-.52782.1118-.81572v-4.81034h2.3848v5.62606z"/><path d="m96.288 2.69154v6.64571h-2.3848v-6.64571h-3.7388v-1.84736h9.8746v1.84736z"/><path d="m110.063 9.33725v-3.53878h-6.061v3.53878h-2.385v-8.49307h2.385v3.08294h6.061v-3.08294h2.385v8.49307z"/><path d="m115.193 9.33725v-8.49307h8.931v1.81137h-6.484v1.40352h6.148v1.81137h-6.148v1.65543h6.571v1.81138z"/><path d="m134.855 9.33725-5.949-5.82999v5.82999h-2.385v-8.49307h2.584l5.949 5.85398v-5.85398h2.373v8.49307z"/><path d="m145.128 2.69154v6.64571h-2.385v-6.64571h-3.739v-1.84736h9.875v1.84736z"/><path d="m150.456 9.33725v-8.49307h2.373v8.49307z"/><path d="m165.312 8.74922c-.311.11995-.621.23991-.932.33588-.31.09597-.633.17994-.969.25191-.335.07198-.683.13196-1.055.16795-.373.03598-.758.05997-1.193.05997-.894 0-1.726-.09596-2.484-.2759-.758-.19193-1.404-.46784-1.95-.83971-.547-.37187-.969-.83971-1.267-1.39152-.311-.56381-.46-1.21158-.46-1.95533 0-.74374.149-1.39152.46-1.95532.298-.56381.72-1.01965 1.267-1.39152.546-.37187 1.192-.65977 1.95-.839711.758-.191933 1.59-.275904 2.484-.275904.423 0 .82.023991 1.193.059979.372.035988.72.095967 1.055.167942.336.071975.659.155944.969.251914.311.09597.621.21592.932.33588v2.06329c-.249-.13195-.497-.25191-.77-.37187-.274-.13195-.572-.23992-.895-.33588-.323-.10797-.683-.19194-1.068-.25192-.385-.07197-.832-.09596-1.316-.09596-.746 0-1.367.07197-1.864.22792-.496.14395-.881.34788-1.18.58779-.298.25192-.509.52782-.621.85171-.124.32389-.186.64778-.186.98366 0 .22792.025.45584.075.67177.049.21592.136.41985.26.62378.125.19194.274.37187.472.53982.199.16794.435.31189.721.41985.286.11996.621.21593 1.006.2879.385.07198.832.09597 1.329.09597.484 0 .932-.02399 1.317-.08397s.745-.14395 1.068-.23992.621-.21592.894-.33588c.273-.13196.522-.26391.77-.38387v2.0393z"/></g></svg>