<svg width="113" height="76" viewBox="0 0 113 76" fill="none" xmlns="http://www.w3.org/2000/svg">
<path d="M103.265 37.9897C103.265 36.3475 101.951 34.979 100.254 34.979C98.6119 34.979 97.2434 36.3475 97.2434 37.9897C97.2434 39.6319 98.6119 41.0004 100.254 41.0004C101.951 41.0004 103.265 39.6319 103.265 37.9897ZM82.2995 43.2995L82.2995 45.6533L84.5985 45.6533L84.5985 50.2514L90.3462 50.2514L92.7548 45.6533L99.214 45.6533C102.827 45.6533 108.246 41.712 108.246 37.9897C108.246 34.2674 102.827 30.3262 99.214 30.3262L92.7548 30.3262L90.3462 25.728L84.5985 25.728L84.5985 30.3262L82.2995 30.3262L82.2995 32.68L80.0004 32.68C80.0004 36.2381 80.0004 39.7414 80.0004 43.2995L82.2995 43.2995ZM83.668 44.2301C83.668 40.0698 83.668 35.9096 83.668 31.7494C88.8682 31.7494 94.0138 31.7494 99.214 31.7494C102.061 31.7494 106.878 35.0338 106.878 37.9897C106.878 40.9457 102.061 44.2301 99.214 44.2301C94.0138 44.2301 88.8682 44.2301 83.668 44.2301ZM91.222 45.6533L89.5251 48.8829L86.0218 48.8829L86.0218 45.6533L91.222 45.6533ZM82.2995 41.931L81.3689 41.931L81.3689 34.0485L82.2995 34.0485L82.2995 41.931ZM93.1927 38.7013C94.1232 38.7013 94.1232 37.2781 93.1927 37.2781L85.3102 37.2781C84.3796 37.2781 84.3796 38.7013 85.3102 38.7013L93.1927 38.7013ZM89.5251 27.0965L91.222 30.3262L86.0218 30.3262L86.0218 27.0965L89.5251 27.0965ZM101.896 37.9897C101.896 38.8656 101.185 39.6319 100.254 39.6319C99.3783 39.6319 98.6666 38.8656 98.6666 37.9897C98.6666 37.1139 99.3783 36.3475 100.254 36.3475C101.185 36.3475 101.896 37.1139 101.896 37.9897Z" fill="white"/>
<path d="M64 37.7281L61 37.7281" stroke="url(#paint0_linear)" stroke-linecap="round" stroke-linejoin="round"/>
<path d="M49 37.7281L46 37.7281" stroke="url(#paint1_linear)" stroke-linecap="round" stroke-linejoin="round"/>
<path d="M31 37.728L28 37.728" stroke="url(#paint2_linear)" stroke-linecap="round" stroke-linejoin="round"/>
<path d="M78 34.728L72 34.728" stroke="#DF7DA3" stroke-linecap="round" stroke-linejoin="round"/>
<path d="M78 37.728L69 37.728" stroke="#DF7DA3" stroke-linecap="round" stroke-linejoin="round"/>
<path d="M78 40.728L72 40.728" stroke="#DF7DA3" stroke-linecap="round" stroke-linejoin="round"/>
<path d="M23.799 30.6568C19.8999 26.7577 13.5568 26.7569 9.65685 30.6568C5.75691 34.5568 5.75772 40.8998 9.65685 44.799C13.556 48.6981 19.899 48.6989 23.799 44.799C27.6989 40.899 27.6981 34.556 23.799 30.6568Z" stroke="url(#paint3_linear)" stroke-width="2"/>
<path d="M43.049 32.907C40.3904 30.2483 36.0661 30.2478 33.4069 32.907C30.7477 35.5662 30.7482 39.8905 33.4069 42.5491C36.0655 45.2077 40.3898 45.2083 43.049 42.5491C45.7082 39.8899 45.7076 35.5656 43.049 32.907Z" stroke="url(#paint4_linear)" stroke-width="2"/>
<path d="M58.299 34.157C56.3295 32.1875 53.1267 32.1871 51.1569 34.157C49.187 36.1269 49.1874 39.3296 51.1569 41.2991C53.1263 43.2686 56.3291 43.269 58.299 41.2991C60.2689 39.3292 60.2685 36.1264 58.299 34.157Z" stroke="url(#paint5_linear)" stroke-width="2"/>
<defs>
<linearGradient id="paint0_linear" x1="64" y1="37.7281" x2="61" y2="37.7281" gradientUnits="userSpaceOnUse">
<stop stop-color="#DF7DA3"/>
<stop offset="1" stop-color="#A66ECD"/>
</linearGradient>
<linearGradient id="paint1_linear" x1="49" y1="37.7281" x2="46" y2="37.7281" gradientUnits="userSpaceOnUse">
<stop stop-color="#DF7DA3"/>
<stop offset="1" stop-color="#A66ECD"/>
</linearGradient>
<linearGradient id="paint2_linear" x1="31" y1="37.728" x2="28" y2="37.728" gradientUnits="userSpaceOnUse">
<stop stop-color="#DF7DA3"/>
<stop offset="1" stop-color="#A66ECD"/>
</linearGradient>
<linearGradient id="paint3_linear" x1="16.8457" y1="24.7279" x2="16.3457" y2="51.7279" gradientUnits="userSpaceOnUse">
<stop stop-color="#DF7DA3"/>
<stop offset="1" stop-color="#A66ECD"/>
</linearGradient>
<linearGradient id="paint4_linear" x1="38.3041" y1="29.3242" x2="37.9808" y2="46.7783" gradientUnits="userSpaceOnUse">
<stop stop-color="#DF7DA3"/>
<stop offset="1" stop-color="#A66ECD"/>
</linearGradient>
<linearGradient id="paint5_linear" x1="54.7809" y1="31.8777" x2="54.5559" y2="44.0284" gradientUnits="userSpaceOnUse">
<stop stop-color="#DF7DA3"/>
<stop offset="1" stop-color="#A66ECD"/>
</linearGradient>
</defs>
</svg>
