<svg width="102" height="168" viewBox="0 0 102 168" fill="none" xmlns="http://www.w3.org/2000/svg">
<path d="M51.2635 20.583C44.4779 20.583 38.8232 26.0115 38.8232 33.0233C38.8232 39.8089 44.4779 45.4636 51.2635 45.4636C58.0491 45.4636 63.7038 39.8089 63.7038 33.0233C63.7038 26.0115 58.0491 20.583 51.2635 20.583ZM73.2036 107.213H82.9297V97.7127H101.929V73.9631L82.9297 64.0109V37.3208C82.9297 22.3925 66.6442 0 51.2635 0C35.8828 0 19.5974 22.3925 19.5974 37.3208V64.0109L0.597656 73.9631V97.7127H19.5974V107.213H29.3234V116.712C44.0255 116.712 58.5015 116.712 73.2036 116.712V107.213ZM77.0488 101.558C59.8586 101.558 42.6684 101.558 25.4782 101.558C25.4782 80.0702 25.4782 58.8086 25.4782 37.3208C25.4782 25.5591 39.0494 5.65467 51.2635 5.65467C63.4776 5.65467 77.0488 25.5591 77.0488 37.3208C77.0488 58.8086 77.0488 80.0702 77.0488 101.558ZM82.9297 70.3441L96.2747 77.3559V91.8319H82.9297V70.3441ZM67.549 107.213V111.058H34.9781V107.213H67.549ZM54.2039 62.2014C54.2039 58.3562 48.3231 58.3562 48.3231 62.2014V94.7723C48.3231 98.6175 54.2039 98.6175 54.2039 94.7723V62.2014ZM6.25233 77.3559L19.5974 70.3441V91.8319H6.25233V77.3559ZM51.2635 26.2377C54.8825 26.2377 58.0491 29.1781 58.0491 33.0233C58.0491 36.6423 54.8825 39.5827 51.2635 39.5827C47.6445 39.5827 44.4779 36.6423 44.4779 33.0233C44.4779 29.1781 47.6445 26.2377 51.2635 26.2377Z" fill="white"/>
<path d="M67.2425 127.343C67.2425 123.498 61.3616 123.498 61.3616 127.343V141.14C61.3616 144.985 67.2425 144.985 67.2425 141.14V127.343ZM53.2189 127.343C53.2189 123.498 47.338 123.498 47.338 127.343V165.116C47.338 168.961 53.2189 168.961 53.2189 165.116V127.343ZM39.1953 127.343C39.1953 123.498 33.3145 123.498 33.3145 127.343V141.14C33.3145 144.985 39.1953 144.985 39.1953 141.14V127.343Z" fill="url(#paint0_linear)"/>
<defs>
<linearGradient id="paint0_linear" x1="50.2785" y1="124.459" x2="50.2785" y2="168" gradientUnits="userSpaceOnUse">
<stop stop-color="#C075BB"/>
<stop offset="1" stop-color="#A66ECD"/>
</linearGradient>
</defs>
</svg>
