<svg width="96" height="76" viewBox="0 0 96 76" fill="none" xmlns="http://www.w3.org/2000/svg">
<g clip-path="url(#clip0)">
<path d="M85 58.9H75.2C74.5 58.9 74 58.4 74 57.7V53.9C74 53.2 74.5 52.7 75.2 52.7H85C85.7 52.7 86.2 53.2 86.2 53.9V57.7C86.2 58.4 85.6 58.9 85 58.9Z" fill="url(#paint0_linear)"/>
<path d="M72 58.9H62.2C61.5 58.9 61 58.4 61 57.7V53.9C61 53.2 61.5 52.7 62.2 52.7H72C72.7 52.7 73.2 53.2 73.2 53.9V57.7C73.2 58.4 72.6 58.9 72 58.9Z" fill="url(#paint1_linear)"/>
<path d="M59 58.9H49.2C48.5 58.9 48 58.4 48 57.7V53.9C48 53.2 48.5 52.7 49.2 52.7H59C59.7 52.7 60.2 53.2 60.2 53.9V57.7C60.2 58.4 59.6 58.9 59 58.9Z" fill="url(#paint2_linear)"/>
<path d="M46 58.9H36.2C35.5 58.9 35 58.4 35 57.7V53.9C35 53.2 35.5 52.7 36.2 52.7H46C46.7 52.7 47.2 53.2 47.2 53.9V57.7C47.2 58.4 46.6 58.9 46 58.9Z" fill="url(#paint3_linear)"/>
<path d="M33 58.9H23.2C22.5 58.9 22 58.4 22 57.7V53.9C22 53.2 22.5 52.7 23.2 52.7H33C33.7 52.7 34.2 53.2 34.2 53.9V57.7C34.2 58.4 33.6 58.9 33 58.9Z" fill="url(#paint4_linear)"/>
<path d="M20 58.9H10.2C9.5 58.9 9 58.4 9 57.7V53.9C9 53.2 9.5 52.7 10.2 52.7H20C20.7 52.7 21.2 53.2 21.2 53.9V57.7C21.2 58.4 20.6 58.9 20 58.9Z" fill="url(#paint5_linear)"/>
<path d="M78.0996 52H68.2996C67.5996 52 67.0996 51.5 67.0996 50.8V47C67.0996 46.3 67.5996 45.8 68.2996 45.8H78.0996C78.7996 45.8 79.2996 46.3 79.2996 47V50.8C79.2996 51.5 78.7996 52 78.0996 52Z" fill="url(#paint6_linear)"/>
<path d="M65.0996 52H55.2996C54.5996 52 54.0996 51.5 54.0996 50.8V47C54.0996 46.3 54.5996 45.8 55.2996 45.8H65.0996C65.7996 45.8 66.2996 46.3 66.2996 47V50.8C66.2996 51.5 65.7996 52 65.0996 52Z" fill="url(#paint7_linear)"/>
<path d="M52.0996 52H42.2996C41.5996 52 41.0996 51.5 41.0996 50.8V47C41.0996 46.3 41.5996 45.8 42.2996 45.8H52.0996C52.7996 45.8 53.2996 46.3 53.2996 47V50.8C53.2996 51.5 52.7996 52 52.0996 52Z" fill="url(#paint8_linear)"/>
<path d="M39.0996 52H29.2996C28.5996 52 28.0996 51.5 28.0996 50.8V47C28.0996 46.3 28.5996 45.8 29.2996 45.8H39.0996C39.7996 45.8 40.2996 46.3 40.2996 47V50.8C40.2996 51.5 39.7996 52 39.0996 52Z" fill="url(#paint9_linear)"/>
<path d="M26.0996 52H16.2996C15.5996 52 15.0996 51.5 15.0996 50.8V47C15.0996 46.3 15.5996 45.8 16.2996 45.8H26.0996C26.7996 45.8 27.2996 46.3 27.2996 47V50.8C27.2996 51.5 26.7996 52 26.0996 52Z" fill="url(#paint10_linear)"/>
<path d="M85.3008 45H75.5008C74.8008 45 74.3008 44.5 74.3008 43.8V40C74.3008 39.3 74.8008 38.8 75.5008 38.8H85.3008C86.0008 38.8 86.5008 39.3 86.5008 40V43.8C86.6008 44.5 86.0008 45 85.3008 45Z" fill="url(#paint11_linear)"/>
<path d="M72.3008 45H62.5008C61.8008 45 61.3008 44.5 61.3008 43.8V40C61.3008 39.3 61.8008 38.8 62.5008 38.8H72.3008C73.0008 38.8 73.5008 39.3 73.5008 40V43.8C73.6008 44.5 73.0008 45 72.3008 45Z" fill="url(#paint12_linear)"/>
<path d="M59.3008 45H49.5008C48.8008 45 48.3008 44.5 48.3008 43.8V40C48.3008 39.3 48.8008 38.8 49.5008 38.8H59.3008C60.0008 38.8 60.5008 39.3 60.5008 40V43.8C60.6008 44.5 60.0008 45 59.3008 45Z" fill="url(#paint13_linear)"/>
<path d="M46.3008 45H36.5008C35.8008 45 35.3008 44.5 35.3008 43.8V40C35.3008 39.3 35.8008 38.8 36.5008 38.8H46.3008C47.0008 38.8 47.5008 39.3 47.5008 40V43.8C47.6008 44.5 47.0008 45 46.3008 45Z" fill="url(#paint14_linear)"/>
<path d="M33.3008 45H23.5008C22.8008 45 22.3008 44.5 22.3008 43.8V40C22.3008 39.3 22.8008 38.8 23.5008 38.8H33.3008C34.0008 38.8 34.5008 39.3 34.5008 40V43.8C34.6008 44.5 34.0008 45 33.3008 45Z" fill="url(#paint15_linear)"/>
<path d="M20.3008 45H10.5008C9.80078 45 9.30078 44.5 9.30078 43.8V40C9.30078 39.3 9.80078 38.8 10.5008 38.8H20.3008C21.0008 38.8 21.5008 39.3 21.5008 40V43.8C21.6008 44.5 21.0008 45 20.3008 45Z" fill="url(#paint16_linear)"/>
<path d="M78.5 38.1H68.7C68 38.1 67.5 37.6 67.5 36.9V33.1C67.5 32.4 68 31.9 68.7 31.9H78.5C79.2 31.9 79.7 32.4 79.7 33.1V36.9C79.7 37.5 79.1 38.1 78.5 38.1Z" fill="url(#paint17_linear)"/>
<path d="M65.5 38.1H55.7C55 38.1 54.5 37.6 54.5 36.9V33.1C54.5 32.4 55 31.9 55.7 31.9H65.5C66.2 31.9 66.7 32.4 66.7 33.1V36.9C66.7 37.5 66.1 38.1 65.5 38.1Z" fill="url(#paint18_linear)"/>
<path d="M52.5 38.1H42.7C42 38.1 41.5 37.6 41.5 36.9V33.1C41.5 32.4 42 31.9 42.7 31.9H52.5C53.2 31.9 53.7 32.4 53.7 33.1V36.9C53.7 37.5 53.1 38.1 52.5 38.1Z" fill="url(#paint19_linear)"/>
<path d="M39.5 38.1H29.7C29 38.1 28.5 37.6 28.5 36.9V33.1C28.5 32.4 29 31.9 29.7 31.9H39.5C40.2 31.9 40.7 32.4 40.7 33.1V36.9C40.7 37.5 40.1 38.1 39.5 38.1Z" fill="url(#paint20_linear)"/>
<path d="M26.5 38.1H16.7C16 38.1 15.5 37.6 15.5 36.9V33.1C15.5 32.4 16 31.9 16.7 31.9H26.5C27.2 31.9 27.7 32.4 27.7 33.1V36.9C27.7 37.5 27.1 38.1 26.5 38.1Z" fill="url(#paint21_linear)"/>
<path d="M85.6992 31.1H75.8992C75.1992 31.1 74.6992 30.6 74.6992 29.9V26.1C74.6992 25.4 75.1992 24.9 75.8992 24.9H85.6992C86.3992 24.9 86.8992 25.4 86.8992 26.1V29.9C86.8992 30.5 86.3992 31.1 85.6992 31.1Z" fill="url(#paint22_linear)"/>
<path d="M72.6992 31.1H62.8992C62.1992 31.1 61.6992 30.6 61.6992 29.9V26.1C61.6992 25.4 62.1992 24.9 62.8992 24.9H72.6992C73.3992 24.9 73.8992 25.4 73.8992 26.1V29.9C73.8992 30.5 73.3992 31.1 72.6992 31.1Z" fill="url(#paint23_linear)"/>
<path d="M59.6992 31.1H49.8992C49.1992 31.1 48.6992 30.6 48.6992 29.9V26.1C48.6992 25.4 49.1992 24.9 49.8992 24.9H59.6992C60.3992 24.9 60.8992 25.4 60.8992 26.1V29.9C60.8992 30.5 60.3992 31.1 59.6992 31.1Z" fill="url(#paint24_linear)"/>
<path d="M46.6992 31.1H36.8992C36.1992 31.1 35.6992 30.6 35.6992 29.9V26.1C35.6992 25.4 36.1992 24.9 36.8992 24.9H46.6992C47.3992 24.9 47.8992 25.4 47.8992 26.1V29.9C47.8992 30.5 47.3992 31.1 46.6992 31.1Z" fill="url(#paint25_linear)"/>
<path d="M33.6992 31.1H23.8992C23.1992 31.1 22.6992 30.6 22.6992 29.9V26.1C22.6992 25.4 23.1992 24.9 23.8992 24.9H33.6992C34.3992 24.9 34.8992 25.4 34.8992 26.1V29.9C34.8992 30.5 34.3992 31.1 33.6992 31.1Z" fill="url(#paint26_linear)"/>
<path d="M20.6992 31.1H10.8992C10.1992 31.1 9.69922 30.6 9.69922 29.9V26.1C9.69922 25.4 10.1992 24.9 10.8992 24.9H20.6992C21.3992 24.9 21.8992 25.4 21.8992 26.1V29.9C21.8992 30.5 21.3992 31.1 20.6992 31.1Z" fill="url(#paint27_linear)"/>
<path d="M78.8008 24.2H69.0008C68.3008 24.2 67.8008 23.7 67.8008 23V19.2C67.8008 18.5 68.3008 18 69.0008 18H78.8008C79.5008 18 80.0008 18.5 80.0008 19.2V23C80.1008 23.6 79.5008 24.2 78.8008 24.2Z" fill="url(#paint28_linear)"/>
<path d="M65.8008 24.2H56.0008C55.3008 24.2 54.8008 23.7 54.8008 23V19.2C54.8008 18.5 55.3008 18 56.0008 18H65.8008C66.5008 18 67.0008 18.5 67.0008 19.2V23C67.1008 23.6 66.5008 24.2 65.8008 24.2Z" fill="url(#paint29_linear)"/>
<path d="M52.8008 24.2H43.0008C42.3008 24.2 41.8008 23.7 41.8008 23V19.2C41.8008 18.5 42.3008 18 43.0008 18H52.8008C53.5008 18 54.0008 18.5 54.0008 19.2V23C54.1008 23.6 53.5008 24.2 52.8008 24.2Z" fill="url(#paint30_linear)"/>
<path d="M39.8008 24.2H30.0008C29.3008 24.2 28.8008 23.7 28.8008 23V19.2C28.8008 18.5 29.3008 18 30.0008 18H39.8008C40.5008 18 41.0008 18.5 41.0008 19.2V23C41.1008 23.6 40.5008 24.2 39.8008 24.2Z" fill="url(#paint31_linear)"/>
<path d="M26.8008 24.2H17.0008C16.3008 24.2 15.8008 23.7 15.8008 23V19.2C15.8008 18.5 16.3008 18 17.0008 18H26.8008C27.5008 18 28.0008 18.5 28.0008 19.2V23C28.1008 23.6 27.5008 24.2 26.8008 24.2Z" fill="url(#paint32_linear)"/>
<path d="M31.2 49.5C31.3 49.6 31.4 49.6 31.5 49.8C31.6 49.9 31.6 50.1001 31.6 50.2001C31.6 50.3001 31.6 50.5001 31.6 50.7001C31.6 50.9001 31.6 51.0001 31.5 51.2001C31.4 51.2001 31.4 51.2 31.3 51.3C31.3 51.4 31.2 51.5 31.2 51.6C31 51.6 28.6 52.4 28.4 52.5C28.2 52.6 28.1 52.6001 27.9 52.7001C27.9 52.7001 27.9 52.7 27.9 52.8C27.9 52.9 27.9 52.9001 27.9 52.9001C27.7 52.8001 27.5 52.8 27.3 52.8C27.1 52.9 26.9 53 26.7 53.1C26.5 53.2 26.3 53.4 26.1 53.5C25.9 53.6 25.7 53.8 25.4 53.8C25.3 53.7 25.2 53.5001 25.1 53.4001C25 53.2001 25 53 24.9 52.8C24.8 52.6 24.8 52.4 24.7 52.1C24.6 51.8 24.6 51.7001 24.5 51.4001C24.5 51.2001 24.5 51.1 24.5 51C24.5 50.9 24.5 50.8001 24.6 50.7001C24.6 49.9001 24.6 49.0001 24.6 48.2001C24.6 47.4001 24.6 46.5 24.6 45.7C24.6 45 24.6 44.3 24.6 43.7C24.6 43.1 24.6 42.5 24.6 41.9C24.6 41.3 24.6 40.8 24.6 40.2C24.6 39.6 24.6 39.1 24.5 38.4C24.5 37.9 24.5 37.4 24.5 37C24.5 36.6 24.5 36.1 24.5 35.7C24.5 35.3 24.5 34.8 24.4 34.3C24.3 33.8 24.3 33.3 24.3 32.7C24.3 32.5 24.2 32.4 24.2 32.3C24.2 32.2 24.2 32.1 24.2 32C24.1 31.8 24.1 31.6 24 31.5C24 31.5 24.1 31.4 24.1 31.2C24.1 31 24.1 30.9 24.1 30.9C24.2 30.8 24.3 30.7 24.4 30.7C24.5 30.7 24.6 30.6 24.8 30.6C24.9 30.6 25 30.5 25.1 30.5C25.2 30.4 25.3 30.4 25.4 30.3C25.7 30.2 26.1 30.1 26.4 30C26.8 29.9 27.1 29.8 27.4 29.8C27.5 29.9 27.7 29.9 27.8 29.9C28 29.9 28.1 29.9 28.3 29.9C28.5 29.9 28.6 30 28.7 30.1C28.8 30.2 29 30.4 29.1 30.8C29.2 30.8 29.3 30.9 29.3 30.9C29.4 31 29.4 31.1 29.4 31.2C29.4 31.3 29.5 31.4 29.5 31.6C29.5 31.7 29.5 31.9 29.6 32C29.5 32.2 29.4 32.4 29.2 32.5C29 32.6 28.9 32.7 28.7 32.8C28.5 32.9 28.3 33 28.1 33C27.9 33.1 27.7 33.1 27.5 33.2C27.3 33.3 27.1 33.3 26.9 33.3C26.7 33.3 26.6 33.4 26.5 33.4C26.4 33.4 26.3 33.5 26.2 33.5C26.1 33.5 26 33.6 26 33.6C26 34.2 26.1 34.9 26.1 35.7C26.1 36.4 26.2 37.2 26.2 37.9C26.2 38.6 26.2 39.3 26.3 40C26.4 40.7 26.3 41.3 26.4 41.9C26.4 42.5 26.4 43 26.5 43.4C26.5 43.7 26.5 43.9 26.5 44.1C26.5 44.2 26.5 44.3 26.5 44.5C26.5 45.1 26.5 45.6 26.5 46C26.5 46.5 26.5 46.9 26.5 47.4C26.5 47.8 26.5 48.2001 26.5 48.7001C26.5 49.1001 26.5 49.6001 26.5 50.2001C26.6 50.1001 26.8 50.1 27 50C27.2 49.9 27.4 49.9 27.7 49.8C28 49.7 30.6 48.8 31 48.8C31 48.9 31.1 49 31.1 49.1C31.1 49.2 31.2 49.2001 31.3 49.2001C31.4 49.2001 31.4 49.3 31.5 49.3C31.1 49.3 31.2 49.4 31.2 49.5Z" fill="white"/>
<path d="M31.0008 41C31.1008 40.9 31.1008 40.9 31.1008 40.9C31.0008 40.9 31.0008 40.8 31.0008 40.6C31.0008 40.5 30.9008 40.4 30.8008 40.3C30.8008 40.2 30.8008 40.2 30.8008 40.1C30.8008 40 30.8008 40 30.9008 40C30.8008 39.8 30.8008 39.6 30.8008 39.4C30.8008 39.2 30.8008 39 30.8008 38.8C30.8008 38.6 30.9008 38.4 30.9008 38.3C30.9008 38.2 31.0008 37.9 31.0008 37.8C31.1008 37.8 31.1008 37.8 31.1008 37.8C31.1008 37.8 31.1008 37.8 31.2008 37.8C31.3008 37.7 31.3008 37.5 31.4008 37.4C31.4008 37.3 31.4008 37.1 31.4008 36.9C31.4008 36.6 31.4008 36.4 31.5008 36.1C31.5008 35.8 31.6008 35.6 31.7008 35.3C31.8008 35.1 31.8008 34.8 31.9008 34.7C32.0008 34.6 32.1008 34.4 32.2008 34.3C32.3008 34.2 32.4008 34 32.5008 33.9C32.6008 33.8 32.8008 33.7 32.9008 33.6C33.0008 33.5 33.2008 33.5 33.4008 33.4C33.6008 33.3 33.7008 33.4 33.9008 33.4H34.0008V33.3C34.3008 33.3 34.7008 33.4 34.9008 33.5C35.2008 33.6 35.4008 33.8 35.7008 34C35.9008 34.3 36.0008 34.6 36.2008 34.9C36.4008 35.2 36.5008 35.6 36.6008 36C36.7008 36.4 36.8008 36.8 36.9008 37.2C37.0008 37.6 37.0008 38 36.9008 38.4C36.7008 38.9 36.5008 39.3 36.2008 39.6C35.9008 39.9 35.6008 40.2 35.2008 40.4C34.8008 40.6 34.5008 40.8 34.1008 41C33.7008 41.2 33.3008 41.4 33.0008 41.5C33.0008 41.8 33.1008 42.1 33.1008 42.4C33.1008 42.7 33.2008 43 33.2008 43.3C33.2008 43.6 33.3008 46.3 33.3008 46.6C33.3008 46.9 33.2008 47.2 33.1008 47.5C33.0008 47.5 32.8008 47.6 32.7008 47.6C32.6008 47.7 32.4008 47.7 32.3008 47.8C32.2008 47.8 32.2008 47.7 32.1008 47.7C32.0008 47.7 32.0008 47.6 31.9008 47.6C31.9008 47.5 31.9008 47.4 31.8008 47.2C31.7008 47.1 31.6008 47 31.6008 46.8C31.5008 46.7 31.5008 46.6 31.4008 46.4C31.4008 46.3 31.4008 46.2 31.5008 46C31.4008 45.9 31.3008 43.5 31.2008 43.3C31.2008 43.3 31.3008 43.4 31.3008 43.3C31.3008 43.1 31.2008 42.9 31.2008 42.6C31.2008 42.3 31.2008 42.1 31.2008 41.8C31.2008 41.5 31.2008 41.3 31.1008 41.1C31.0008 40.9 31.2008 41.1 31.0008 41ZM32.7008 37.1C32.7008 37.3 32.7008 37.5 32.7008 37.6C32.7008 37.8 32.7008 37.9 32.7008 38C32.7008 38.1 32.7008 38.3 32.7008 38.4C32.7008 38.5 32.7008 38.7 32.7008 38.8C32.7008 38.9 32.8008 39 32.8008 39C32.9008 39 32.9008 39.1 32.9008 39.2C33.0008 39.1 33.1008 38.9 33.3008 38.9C33.4008 38.8 33.5008 38.7 33.7008 38.7C33.8008 38.6 34.0008 38.6 34.1008 38.5C34.2008 38.4 34.3008 38.3 34.5008 38.2C34.6008 38.1 34.8008 37.9 34.9008 37.8C35.0008 37.7 35.2008 37.6 35.3008 37.5C35.4008 37.4 35.6008 37.3 35.7008 37.1C35.8008 37 35.9008 36.8 36.0008 36.6C35.8008 36.4 35.6008 36.2 35.3008 36.1C34.9008 36 34.6008 36 34.3008 36C34.0008 36 33.7008 36.1 33.4008 36.3C33.1008 36.5 32.8008 36.7 32.7008 37.1Z" fill="white"/>
<path d="M42.6996 42.3C42.6996 42.5 42.6996 42.7 42.5996 42.9C42.5996 43.1 42.4996 43.3 42.3996 43.4C42.2996 43.6 42.1996 43.7 42.0996 43.8C41.9996 43.9 41.8996 44 41.6996 44C41.5996 44 41.4996 44 41.4996 43.9L41.3996 43.8C41.3996 43.8 41.3996 43.8 41.2996 43.8C41.2996 43.8 41.2996 43.8 41.1996 43.8L41.0996 43.7V43.5C41.0996 43.4 41.0996 43.4 41.0996 43.3C41.0996 43.3 40.9996 43.2 40.9996 43.1C40.9996 43.1 40.9996 43 40.8996 43C40.8996 43 40.8996 42.9 40.7996 42.9L40.5996 42.6L40.8996 42.5C41.0996 42.4 41.1996 42.3 41.1996 42.2C41.1996 42.1 41.1996 41.9 41.1996 41.6C41.0996 41.6 40.8996 41.6 40.8996 41.6C40.7996 41.6 40.6996 41.7 40.5996 41.7C40.4996 41.8 40.3996 41.8 40.2996 41.9C40.1996 42 39.9996 42 39.8996 42C39.7996 42 39.7996 42 39.6996 42C39.6996 42 39.5996 42 39.4996 42H39.3996C39.3996 41.9 39.2996 41.8 39.2996 41.8C39.2996 41.8 39.1996 41.7 39.1996 41.6C39.1996 41.5 39.0996 41.4 39.0996 41.3C39.0996 41.2 38.9996 41.1 38.9996 41C38.9996 41.1 38.9996 41.3 38.9996 41.4V41.6H38.8996C38.8996 41.6 38.8996 41.6 38.8996 41.7V41.8V42.1C38.8996 42.1 38.8996 42.1 38.8996 42.2C38.8996 42.2 38.8996 42.2 38.8996 42.3C38.8996 42.4 38.8996 42.5 38.8996 42.6C38.8996 42.7 38.8996 42.8 38.8996 42.9C38.8996 43 38.8996 43.2 38.8996 43.3C38.8996 43.4 38.8996 43.6 38.8996 43.7V43.9C38.8996 44 38.7996 44 38.7996 44.1L38.6996 44.2C38.6996 44.2 38.6996 44.2 38.6996 44.3V44.5H38.5996C38.4996 44.5 38.4996 44.6 38.4996 44.6H38.3996H38.2996C38.1996 44.5 38.0996 44.5 38.0996 44.4C38.0996 44.4 37.9996 44.3 37.8996 44.3C37.7996 44.2 37.7996 44.1 37.7996 44C37.7996 43.9 37.7996 43.9 37.7996 43.8C37.7996 43.7 37.7996 43.7 37.7996 43.7V43.6L37.5996 43.4L37.6996 43.2V42.9C37.7996 42.4 37.7996 41.8 37.8996 41.3C37.9996 40.8 38.0996 40.3 38.0996 39.8C38.0996 39.6 38.1996 39.5 38.1996 39.3C38.1996 39.1 38.2996 39 38.2996 38.8V38.7V38.6C38.2996 38.4 38.3996 38.3 38.3996 38.1C38.3996 38 38.4996 37.8 38.4996 37.7C38.4996 37.5 38.5996 37.3 38.5996 37.2C38.5996 37 38.6996 36.8 38.6996 36.7L38.7996 36.6C38.7996 36.6 38.7996 36.6 38.8996 36.6H38.9996H39.1996C39.3996 36.4 39.4996 36.2 39.5996 36C39.6996 35.7 39.7996 35.4 39.8996 35.1L39.9996 34.9L40.0996 35C40.0996 35 40.1996 35 40.2996 35.1C40.3996 35.1 40.3996 35.1 40.4996 35.2C40.5996 35.2 40.6996 35.3 40.8996 35.3C41.0996 35.3 41.0996 35.4 41.1996 35.5C41.2996 35.7 41.2996 35.8 41.2996 35.9C41.2996 36 41.2996 36.1 41.3996 36.1C41.3996 36.3 41.4996 36.4 41.4996 36.6C41.4996 36.8 41.5996 37 41.5996 37.2C41.6996 37.4 41.6996 37.5 41.7996 37.7C41.7996 37.9 41.8996 38 41.8996 38.2C41.9996 38.4 41.9996 38.7 42.0996 38.9C42.1996 39.1 42.1996 39.3 42.2996 39.5C42.3996 39.5 42.3996 39.5 42.3996 39.5C42.3996 39.5 42.4996 39.5 42.4996 39.4H42.5996H42.6996L42.7996 39.5L42.8996 39.6C42.9996 39.6 43.0996 39.6 43.0996 39.7L43.1996 39.8L43.2996 39.9L43.4996 40V40.2C43.4996 40.4 43.3996 40.6 43.2996 40.8C43.1996 41 43.0996 41.1 42.8996 41.3C42.8996 41.4 42.8996 41.4 42.8996 41.5C42.8996 41.6 42.8996 41.6 42.9996 41.7C42.9996 41.9 43.0996 42 43.0996 42.2C42.6996 41.9 42.6996 42.1 42.6996 42.3ZM39.3996 40.1C39.5996 40 39.7996 40 39.8996 39.9C40.0996 39.8 40.1996 39.8 40.3996 39.7C40.2996 39.4 40.1996 39.1 40.0996 38.8C39.9996 38.5 39.8996 38.2 39.7996 37.8V38C39.6996 38.2 39.5996 38.5 39.4996 38.8C39.3996 39.1 39.2996 39.3 39.2996 39.6C39.2996 39.7 39.1996 39.8 39.1996 39.9C39.1996 40 39.1996 40.1 39.0996 40.2H39.1996C39.2996 40.2 39.3996 40.1 39.3996 40.1Z" fill="white"/>
<path d="M42.4996 36.6C42.4996 36.4 42.5996 36.2 42.5996 36C42.5996 35.8 42.7996 35.7 42.8996 35.6C42.9996 35.5 43.0996 35.4 43.1996 35.3C43.2996 35.2 43.3996 35.1 43.5996 35.1C43.7996 34.9 44.0996 34.7 44.3996 34.5C44.6996 34.3 44.9996 34.1 45.2996 33.9C45.5996 33.7 45.8996 33.6 46.1996 33.5C46.4996 33.4 46.8996 33.4 47.2996 33.5C47.2996 33.6 47.3996 33.7 47.3996 33.8C47.4996 33.9 47.4996 34 47.5996 34.1C47.6996 34.2 47.6996 34.3 47.7996 34.3C47.8996 34.3 47.8996 34.5 47.8996 34.6C47.9996 34.7 47.9996 34.8 48.0996 34.9C48.1996 35 48.1996 35.1 48.1996 35.3C48.0996 35.4 48.0996 35.5 47.9996 35.6C47.8996 35.7 47.8996 35.7 47.7996 35.8C47.4996 35.7 47.2996 35.8 46.9996 35.8C46.7996 35.9 46.4996 35.9 46.2996 36C46.1996 35.9 46.0996 35.9 46.0996 35.9C46.0996 35.9 45.8996 35.9 45.7996 36C45.6996 36.1 45.5996 36.1 45.4996 36.2C45.3996 36.3 45.2996 36.3 45.1996 36.3C45.0996 36.4 45.0996 36.5 44.9996 36.5C44.8996 36.5 44.7996 36.6 44.6996 36.6C44.6996 36.7 44.6996 36.7 44.6996 36.7C44.6996 36.7 44.6996 36.7 44.6996 36.8C44.7996 36.9 44.7996 36.9 44.8996 36.9C44.9996 36.9 44.9996 36.9 45.0996 37C45.1996 37 45.1996 37 45.2996 37.1C45.3996 37.1 45.3996 37.2 45.3996 37.3C45.4996 37.3 45.5996 37.3 45.6996 37.4C45.7996 37.5 45.8996 37.5 45.8996 37.6C45.8996 37.7 45.9996 37.8 46.0996 37.9C46.0996 38 46.1996 38.1 46.1996 38.2C46.1996 38.3 46.2996 38.3 46.2996 38.3H46.3996C46.3996 38.4 46.4996 38.6 46.5996 38.7C46.6996 38.8 46.7996 39 46.8996 39.1C46.9996 39.4 46.9996 39.6 46.9996 39.8C46.9996 40 46.9996 40.2 46.9996 40.4C46.9996 40.8 46.8996 41.1 46.6996 41.5C46.5996 41.8 46.3996 42.1 46.1996 42.4C45.9996 42.7 45.7996 42.9 45.5996 43.1C45.3996 43.3 45.0996 43.5 44.8996 43.6H44.7996C44.7996 43.6 44.7996 43.6 44.7996 43.5C44.7996 43.6 44.6996 43.6 44.5996 43.7C44.4996 43.7 44.4996 43.7 44.3996 43.8C44.2996 43.8 44.1996 43.8 44.1996 43.8C44.0996 43.8 44.0996 43.8 43.9996 43.8C43.8996 43.7 43.8996 43.7 43.7996 43.6C43.7996 43.5 43.6996 43.5 43.6996 43.4C43.6996 43.4 43.5996 43.4 43.5996 43.3C43.5996 43.2 43.5996 43.2 43.5996 43.2C43.5996 43.1 43.5996 43 43.5996 43C43.5996 43 43.5996 43 43.4996 43C43.4996 43 43.4996 43 43.4996 42.9C43.4996 42.8 43.4996 42.7 43.4996 42.6C43.4996 42.5 43.4996 42.4 43.3996 42.3C43.2996 42.2 43.3996 42.1 43.3996 42C43.3996 41.9 43.3996 41.8 43.4996 41.7C43.6996 41.7 43.8996 41.7 44.0996 41.6C44.2996 41.5 44.4996 41.4 44.5996 41.2C44.7996 41.1 44.8996 40.9 45.0996 40.7C45.1996 40.5 45.3996 40.4 45.4996 40.2C45.4996 40.1 45.4996 40 45.5996 40C45.5996 39.9 45.6996 39.9 45.6996 39.8C45.6996 39.7 45.7996 39.7 45.7996 39.6C45.7996 39.5 45.7996 39.5 45.7996 39.4C45.7996 39.3 45.7996 39.3 45.6996 39.3C45.6996 39.3 45.5996 39.3 45.5996 39.2H45.4996C45.3996 39.1 45.1996 39 44.9996 39C44.7996 38.9 44.6996 38.9 44.4996 38.8C44.3996 38.9 44.3996 38.9 44.2996 38.9C44.1996 38.9 44.0996 38.9 43.9996 38.8C43.7996 38.8 43.4996 38.8 43.2996 38.8C43.0996 38.8 42.8996 38.7 42.6996 38.6C42.6996 38.6 42.6996 38.5 42.5996 38.5H42.4996C42.3996 38.4 42.3996 38.4 42.2996 38.3C42.1996 38.2 42.1996 38.2 42.1996 38.1C42.1996 38 42.1996 37.9 42.1996 37.8C42.1996 37.7 42.1996 37.6 42.0996 37.6C42.0996 37.5 42.0996 37.4 42.0996 37.3C42.0996 37.2 42.4996 36.8 42.4996 36.6Z" fill="white"/>
<path d="M47.2 35.9C47.2 35.7 47.3 35.5 47.3 35.3C47.4 35.1 47.5 35 47.6 34.9C47.7 34.8 47.8 34.7 47.9 34.6C48 34.5 48.1 34.4 48.3 34.4C48.5 34.2 48.8 34 49.1 33.8C49.4 33.6 49.7 33.4 50 33.2C50.3 33 50.6 32.9 50.9 32.8C51.2 32.7 51.6 32.7 52 32.8C52 32.9 52.1 33 52.1 33.1C52.2 33.2 52.2 33.3 52.3 33.4C52.4 33.5 52.4 33.6 52.5 33.6C52.5 33.7 52.6 33.8 52.6 33.9C52.7 34 52.7 34.1 52.8 34.2C52.9 34.3 52.9 34.4 52.9 34.6C52.8 34.7 52.8 34.8 52.7 34.9C52.6 35 52.6 35 52.5 35.1C52.2 35 52 35.1 51.7 35.1C51.5 35.2 51.2 35.2 51 35.3C50.9 35.2 50.8 35.2 50.8 35.2C50.8 35.2 50.6 35.2 50.5 35.3C50.4 35.4 50.3 35.4 50.2 35.5C50.1 35.6 50 35.6 49.9 35.6C49.8 35.7 49.8 35.8 49.7 35.8C49.6 35.8 49.5 35.9 49.4 35.9C49.4 36 49.4 36 49.4 36C49.4 36 49.4 36 49.4 36.1C49.5 36.2 49.5 36.2 49.6 36.2C49.7 36.2 49.7 36.2 49.8 36.3C49.9 36.3 49.9 36.3 50 36.4C50.1 36.5 50.1 36.5 50.1 36.6C50.2 36.6 50.3 36.6 50.4 36.7C50.5 36.8 50.6 36.8 50.6 36.9C50.7 37 50.7 37.1 50.8 37.2C50.8 37.3 50.9 37.4 50.9 37.5C50.9 37.6 51 37.6 51 37.6H51.1C51.1 37.7 51.2 37.9 51.3 38C51.4 38.1 51.5 38.3 51.6 38.4C51.7 38.7 51.7 38.9 51.7 39.1C51.7 39.3 51.7 39.5 51.7 39.7C51.7 40.1 51.6 40.4 51.4 40.8C51.2 41.2 51.1 41.4 50.9 41.7C50.7 42 50.5 42.2 50.3 42.4C50.1 42.6 49.8 42.8 49.6 42.9H49.5C49.5 42.9 49.5 42.9 49.5 42.8C49.5 42.9 48.3 43.4 48.2 43.4C48.1 43.4 48.1 43.4 48 43.5C47.9 43.6 47.8 43.5 47.8 43.5C47.8 43.5 47.7 43.5 47.6 43.5C47.5 43.4 47.5 43.4 47.4 43.3C47.4 43.2 47.3 43.2 47.3 43.1C47.3 43.1 47.2 43.1 47.2 43C47.2 42.9 47.2 42.9 47.2 42.9C47.2 42.8 47.2 42.7 47.2 42.7C47.2 42.7 47.2 42.7 47.1 42.7C47.1 42.7 47.1 42.7 47.1 42.6C47.1 42.5 47.1 42.4 47.1 42.3C47.1 42.2 47.1 42.1 47 42C47 41.9 47 41.8 47 41.7C47 41.6 47 41.5 47.1 41.4C47.3 41.4 47.5 41.4 47.7 41.3C47.9 41.2 49.2 40.6 49.3 40.5C49.5 40.4 49.6 40.2 49.8 40C49.9 39.8 50.1 39.7 50.2 39.5C50.2 39.4 50.2 39.3 50.3 39.3C50.3 39.2 50.4 39.2 50.4 39.1C50.4 39 50.5 39 50.5 38.9C50.5 38.8 50.5 38.8 50.5 38.7C50.5 38.6 50.5 38.6 50.4 38.6C50.3 38.6 50.3 38.6 50.3 38.5H50.2C50.1 38.4 49.9 38.3 49.7 38.3C50 38 49.8 38 49.7 37.9C49.6 38 49.5 38 49.5 38C49.4 38 49.3 38 49.2 37.9C49 37.9 48.7 37.9 48.5 37.9C48.3 37.9 48.1 37.8 47.9 37.7C47.9 37.7 47.9 37.6 47.8 37.6H47.7C47.6 37.5 47.6 37.5 47.5 37.4C47.4 37.3 47.4 37.3 47.4 37.2C47.4 37.1 47.4 37 47.4 36.9C47.4 36.8 47.4 36.7 47.3 36.7C47.3 36.6 47.3 36.5 47.3 36.4C47.3 36.3 47.3 36 47.2 35.9Z" fill="white"/>
<path d="M54.9003 40.7C55.0003 41 55.0003 41.2 55.0003 41.4C55.0003 41.6 54.9003 41.7 54.8003 41.8C54.7003 41.9 54.6003 42 54.5003 42C54.4003 42 54.2003 42 54.1003 42C54.0003 41.9 53.9003 41.7 53.8003 41.5C53.7003 41.3 53.6003 41.1 53.5003 40.9C53.4003 40.7 53.3003 40.5 53.3003 40.2C53.2003 40 53.2003 39.8 53.1003 39.6C53.1003 39.5 53.1003 39.3 53.1003 39.2C53.1003 39 53.1003 38.9 53.0003 38.7C52.9003 38.5 53.0003 38.4 52.9003 38.2C52.9003 38 52.9003 37.9 52.9003 37.7C52.9003 37.3 52.9003 36.8 52.9003 36.4C52.9003 36 52.9003 35.6 52.9003 35.2C52.9003 35.1 52.9003 35 52.8003 34.9C52.8003 34.8 52.7003 34.7 52.8003 34.7V34.6V34.5C52.8003 34.4 52.8003 34.3 52.8003 34.2C52.8003 34.1 52.8003 34 52.8003 33.9C52.8003 33.8 52.8003 33.7 52.9003 33.5C53.0003 33.3 52.9003 33.2 52.9003 33C53.0003 32.9 53.0003 32.8 53.0003 32.8L53.1003 32.6C53.1003 32.6 53.2003 32.5 53.3003 32.4C53.4003 32.3 53.4003 32.3 53.5003 32.3C53.6003 32.4 53.6003 32.5 53.7003 32.6C53.7003 32.7 53.8003 32.8 53.8003 33C53.8003 33.1 53.9003 33.2 53.9003 33.3C53.9003 33.4 54.0003 33.5 54.1003 33.5C54.1003 33.6 54.1003 33.7 54.1003 33.8C54.1003 33.9 54.1003 34 54.2003 34.2C54.2003 34.3 54.3003 34.4 54.3003 34.5C54.3003 34.6 54.4003 34.7 54.4003 34.7C54.4003 35.2 54.3003 35.7 54.3003 36.2C54.3003 36.7 54.3003 37.2 54.3003 37.7C54.3003 38.2 54.3003 38.7 54.4003 39.2C54.6003 39.7 54.7003 40.2 54.9003 40.7Z" fill="white"/>
<path d="M61.1996 36.1C61.1996 36.2 61.1996 36.3 61.2996 36.4C61.2996 36.5 61.3996 36.6 61.3996 36.7C61.3996 36.8 61.4996 36.9 61.4996 37C61.4996 37.1 61.5996 37.2 61.5996 37.3C61.5996 37.4 61.6996 37.6 61.6996 37.8C61.6996 38 61.6996 38.1 61.6996 38.3C61.6996 38.5 61.6996 38.6 61.5996 38.7C61.5996 38.8 61.4996 38.9 61.4996 39C61.3996 39.2 61.2996 39.4 61.1996 39.5C61.0996 39.6 60.9996 39.8 60.8996 39.9C60.7996 40 60.7996 40 60.6996 40.1C60.5996 40.2 60.4996 40.2 60.3996 40.2C60.2996 40.3 60.2996 40.3 60.1996 40.4C60.0996 40.5 59.9996 40.6 59.8996 40.6C59.7996 40.7 59.6996 40.7 59.5996 40.8C59.4996 40.8 59.3996 40.9 59.2996 40.9C59.0996 41 58.8996 41.1 58.6996 41.2C58.4996 41.3 58.2996 41.3 57.9996 41.2C57.7996 41.3 57.4996 41.3 57.2996 41.3C57.0996 41.2 56.8996 41.1 56.6996 41C56.4996 40.9 56.2996 40.7 56.1996 40.4C55.9996 40.2 55.8996 39.9 55.7996 39.7C55.6996 39.1 55.5996 38.6 55.5996 38.1C55.5996 37.6 55.6996 37.2 55.6996 36.7C55.6996 36.2 55.8996 35.9 55.9996 35.5C56.0996 35.1 56.2996 34.8 56.3996 34.4H56.4996V34.3V34.2C56.4996 34.2 56.4996 34.1 56.5996 34.1C56.5996 33.9 56.6996 33.8 56.7996 33.7C56.8996 33.6 56.8996 33.5 56.9996 33.3C57.0996 33.3 57.0996 33.2 57.0996 33.2C57.0996 33.2 57.1996 33.1 57.1996 33C57.1996 32.9 57.2996 32.9 57.2996 32.8C57.2996 32.7 57.3996 32.7 57.3996 32.7V32.5C57.4996 32.4 57.5996 32.3 57.5996 32.2C57.5996 32.1 57.6996 31.9 57.6996 31.8C57.7996 31.8 57.7996 31.8 57.7996 31.8C57.7996 31.8 57.8996 31.8 57.9996 31.7C57.9996 31.5 58.0996 31.4 58.0996 31.4C58.0996 31.4 58.1996 31.2 58.2996 31.1C58.3996 31.1 58.4996 31.2 58.5996 31.2C58.6996 31.2 58.7996 31.3 58.8996 31.4C58.8996 31.5 58.9996 31.6 58.9996 31.6C58.9996 31.7 59.0996 31.7 59.0996 31.7L59.1996 31.8C59.1996 31.8 59.2996 31.9 59.2996 32C59.2996 32 59.2996 32 59.3996 32C59.3996 32 59.3996 32 59.4996 32C59.4996 32.1 59.5996 32.2 59.5996 32.3C59.5996 32.3 59.6996 32.4 59.6996 32.6C59.6996 32.7 59.6996 32.8 59.6996 32.9C59.6996 33 59.6996 33.1 59.5996 33.2C59.5996 33.3 59.5996 33.3 59.6996 33.3C59.6996 33.3 59.7996 33.3 59.7996 33.4C59.7996 33.5 59.7996 33.6 59.7996 33.6C59.9996 34 60.1996 34.4 60.3996 34.8C60.5996 35.2 60.8996 35.8 61.1996 36.1ZM60.0996 37.8C60.0996 37.7 60.0996 37.6 60.1996 37.5C60.2996 37.4 60.1996 37.3 60.1996 37.2C60.1996 37.1 60.0996 37.1 60.0996 37C60.0996 36.9 60.0996 36.9 60.0996 36.8C59.8996 36.5 59.6996 36.2 59.5996 35.8C59.3996 35.5 59.2996 35.1 59.0996 34.8C59.0996 34.8 59.0996 34.9 58.9996 34.9H58.8996C58.8996 35 58.8996 35 58.8996 35.1L58.7996 35.2H58.6996C58.6996 35.2 58.5996 35.2 58.5996 35.1C58.3996 35.4 58.2996 35.6 58.0996 35.9C57.8996 36.2 57.7996 36.4 57.6996 36.8C57.6996 36.8 57.6996 36.8 57.5996 36.8C57.5996 37 57.4996 37.2 57.4996 37.4C57.3996 37.6 57.3996 37.7 57.2996 37.9C57.1996 38.1 57.1996 38.3 57.1996 38.4C57.1996 38.5 57.1996 38.8 57.1996 39.1C57.2996 39.2 57.4996 39.3 57.5996 39.3C57.7996 39.3 57.8996 39.3 58.0996 39.2C58.2996 39.2 58.3996 39.1 58.5996 39C58.7996 38.9 58.8996 38.9 58.9996 38.9C59.2996 38.8 59.4996 38.6 59.6996 38.4C59.6996 38.2 59.8996 38 60.0996 37.8Z" fill="white"/>
<path d="M64.1 37.5001C64 37.5001 64 37.6001 64 37.7001C64 37.8001 64 37.9001 64 38.0001C64 38.1001 64 38.2001 64 38.3001C64 38.4001 64 38.4001 63.9 38.4001C63.9 38.5001 63.9 38.6001 63.9 38.6001C63.9 38.7001 63.9 38.7001 63.8 38.8001C63.8 38.9001 63.8 38.9001 63.8 39.0001C63.8 39.1001 63.8 39.2001 63.9 39.3001C63.9 39.4001 63.8 39.5001 63.8 39.6001C63.8 39.7001 63.8 39.8001 63.8 39.9001C63.8 40.0001 63.8 40.1001 63.8 40.2001C63.8 40.3001 63.7 40.3001 63.6 40.3001V40.4001C63.6 40.4001 63.6 40.4001 63.6 40.5001C63.5 40.5001 63.5 40.5001 63.4 40.5001L63.3 40.6001C63.2 40.6001 63 40.5001 62.9 40.3001C62.8 40.1001 62.7 40.0001 62.6 39.8001C62.5 39.6001 62.4 39.4001 62.3 39.3001C62.2 39.1001 62.1 39.0001 62.1 38.8001C62.1 38.7001 62.1 38.6001 62.1 38.5001C62.1 38.4001 62 38.3001 62 38.2001C62.2 37.1001 62.4 35.9001 62.6 34.6001C62.8 33.3001 63 32.1001 63.2 30.9001C63.4 31.0001 63.5 31.0001 63.7 31.1001C63.9 31.2001 64 31.3001 64.2 31.4001C64.3 31.5001 64.5 31.7001 64.6 31.9001C64.7 32.1001 64.8 32.3001 64.9 32.5001C64.9 32.6001 64.9 32.6001 64.9 32.6001L65 32.7001C65 32.7001 65 32.7001 65 32.8001C65 32.9001 65 32.8001 65 32.9001C65 32.9001 65 33.0001 65.1 33.0001C65.1 33.0001 65.1 33.0001 65 33.0001C64.9 33.0001 65 33.0001 64.9 33.0001C64.9 33.1001 65 33.2001 65 33.3001C65 33.4001 65 33.4001 65 33.5001C65 33.6001 65 33.6001 65 33.7001C65 33.8001 65 33.9001 65 34.0001C65.1 34.2001 65.1 34.4001 65.1 34.7001C65.1 34.9001 65.2 35.2001 65.2 35.4001C65.2 35.6001 65.3 35.9001 65.3 36.1001C65.3 36.3001 65.4 36.6001 65.5 36.9001C65.7 36.6001 65.9 36.3001 66 36.0001C66.1 35.6001 66.2 35.2001 66.2 34.8001C66.2 34.4001 66.2 33.9001 66.2 33.4001C66.2 32.9001 66.1 32.4001 66.1 31.9001C66.1 31.8001 66.2 31.7001 66.2 31.5001C66.2 31.4001 66.2 31.2001 66.2 31.1001C66.2 30.9001 66.2 30.8001 66.2 30.6001C66.2 30.4001 66.2 30.3001 66.2 30.2001C66.3 30.2001 66.4 30.2001 66.5 30.3001C66.6 30.4001 66.7 30.4001 66.7 30.5001C66.8 30.6001 66.8 30.6001 66.9 30.7001C67 30.8001 67.1 30.8001 67.2 30.8001C67.3 31.0001 67.4 31.1001 67.5 31.3001C67.6 31.5001 67.7 31.6001 67.7 31.8001C67.7 31.9001 67.7 32.0001 67.7 32.1001C67.7 32.2001 67.7 32.3001 67.7 32.4001C67.7 32.5001 67.7 32.6001 67.7 32.7001C67.7 32.8001 67.6 32.9001 67.6 32.9001C67.6 33.2001 67.6 33.4001 67.6 33.6001C67.6 33.8001 67.6 34.0001 67.6 34.3001C67.6 34.5001 67.6 34.7001 67.6 35.0001C67.6 35.3001 67.6 35.5001 67.7 35.8001C67.7 36.0001 67.7 36.3001 67.6 36.6001C67.5 36.9001 67.6 37.1001 67.6 37.3001C67.5 37.4001 67.5 37.6001 67.4 37.8001C67.3 38.0001 67 38.5001 67 38.7001C67 38.7001 67 38.8001 67 38.7001C67 38.7001 67 38.7001 66.9 38.7001V38.8001C66.9 38.8001 66.9 38.8001 66.9 38.9001C66.9 39.0001 66.9 38.9001 66.9 39.0001V39.1001C66.8 39.2001 66.7 39.3001 66.7 39.4001C66.6 39.5001 66.6 39.6001 66.5 39.7001C66.4 39.8001 66.3 39.9001 66.2 39.9001C66.1 39.9001 65.9 39.9001 65.7 39.9001C65.4 39.6001 65.1 39.3001 64.8 39.0001C64.6 38.5001 64.3 38.1001 64.1 37.5001Z" fill="white"/>
<path d="M72.4 23.3C72.5 23.3 72.6 23.4 72.6 23.4C72.7 23.5 72.7 23.6 72.7 23.7C72.7 23.8 72.8 23.9 72.8 24.1C72.8 24.3 72.8 24.4 72.9 24.5C72.9 25.1 72.9 25.8 73 26.5C73 27.3 73 28.1 73 29C73 29.9 73.1 30.7 73.1 31.6C73.1 32.5 73.1 33.3 73.2 34C73.2 34.8 73.2 35.4 73.3 35.9C73.4 36.4 73.3 36.8 73.4 37C73.4 37.7 73.4 38.4 73.4 38.9C73.4 39.4 73.4 39.9 73.4 40.3C73.4 40.7 73.4 41.2 73.4 41.7C73.4 42.2 73.4 42.8 73.4 43.4C73.4 43.6 73.4 43.8 73.4 43.9C73.4 44.1 73.4 44.3 73.3 44.4C73.2 44.4 73.2 44.4 73.1 44.5C73.1 44.6 73 44.7 73 44.8C72.8 44.8 72.6 44.8 72.4 44.9C72.2 45 72.1 45 71.9 45.1C71.9 45.1 71.9 45.1 71.9 45.2C71.9 45.3 71.9 45.3 71.9 45.3C71.7 45.2 71.5 45.2 71.3 45.2C71.1 45.3 70.9 45.4 70.7 45.5C70.5 45.6 70.3 45.8 70.1 45.9C69.9 46 69.7 46.2 69.4 46.2C69.3 46.1 69.2 45.9 69.1 45.8C69 45.6 68.9 45.4 68.9 45.2C68.9 45 68.8 44.8 68.7 44.5C68.6 44.3 68.6 44.1 68.5 43.8C68.5 43.6 68.5 43.5 68.5 43.4C68.5 43.3 68.6 43.2 68.6 43.1C68.8 43.1 68.9 43 69 43C69.1 42.9 69.2 42.9 69.3 42.8C69.4 42.7 69.5 42.7 69.6 42.6C69.7 42.5 69.8 42.5 70 42.5C70 42.4 70.1 42.4 70.2 42.3C70.3 42.2 70.5 42.2 70.6 42.1C70.8 42 70.9 42 71.1 42C71.3 42 71.4 41.9 71.6 41.9C71.6 41.3 71.6 40.7 71.6 40.1C71.6 39.5 71.6 38.9 71.6 38.4C71.6 37.7 71.6 37 71.6 36.4C71.6 35.8 71.6 35.2 71.6 34.6C71.6 34 71.6 33.5 71.6 32.9C71.6 32.3 71.6 31.7 71.5 31.1C71.5 30.6 71.5 30.1 71.5 29.7C71.5 29.3 71.5 28.8 71.5 28.4C71.5 28 71.5 27.5 71.5 27C71.5 26.5 71.4 25.9 71.4 25.3C71.1 25.3 70.9 25.3 70.7 25.3C70.5 25.3 70.3 25.4 70.2 25.5C69.9 25.7 69.7 25.8 69.5 25.9C69.3 26 69.2 26.1 69.2 26.2C69.1 26.2 69 26.2 68.9 26.1C68.8 26 68.8 25.9 68.7 25.8C68.6 25.7 68.6 25.5 68.5 25.3C68.4 25.1 68.4 25 68.3 24.8C68.3 24.7 68.3 24.5 68.2 24.3C68.2 24.1 68.1 23.9 68 23.8C68 24.1 68 24 68 23.8C68 23.6 68 23.5 68 23.4C68.1 23.3 68.2 23.3 68.3 23.2C68.4 23.2 68.5 23.1 68.6 23.1C68.7 23.1 68.8 23 68.9 23C69 23 69.1 22.9 69.1 22.8C69.4 22.7 69.7 22.6 70 22.6C70.3 22.6 70.6 22.4 70.9 22.4C71 22.5 71.1 22.5 71.3 22.5C71.5 22.5 71.6 22.5 71.7 22.5C71.8 22.5 72 22.6 72.1 22.7C72.2 22.7 72.3 22.9 72.4 23.3Z" fill="white"/>
</g>
<defs>
<linearGradient id="paint0_linear" x1="82.9679" y1="21.309" x2="79.7541" y2="59.9543" gradientUnits="userSpaceOnUse">
<stop stop-color="#DF7DA4"/>
<stop offset="0.9988" stop-color="#A66ECD"/>
</linearGradient>
<linearGradient id="paint1_linear" x1="70.0572" y1="20.2353" x2="66.8434" y2="58.8806" gradientUnits="userSpaceOnUse">
<stop stop-color="#DF7DA4"/>
<stop offset="0.9988" stop-color="#A66ECD"/>
</linearGradient>
<linearGradient id="paint2_linear" x1="57.1464" y1="19.1617" x2="53.9327" y2="57.807" gradientUnits="userSpaceOnUse">
<stop stop-color="#DF7DA4"/>
<stop offset="0.9988" stop-color="#A66ECD"/>
</linearGradient>
<linearGradient id="paint3_linear" x1="44.2357" y1="18.0881" x2="41.022" y2="56.7333" gradientUnits="userSpaceOnUse">
<stop stop-color="#DF7DA4"/>
<stop offset="0.9988" stop-color="#A66ECD"/>
</linearGradient>
<linearGradient id="paint4_linear" x1="31.325" y1="17.0144" x2="28.1113" y2="55.6597" gradientUnits="userSpaceOnUse">
<stop stop-color="#DF7DA4"/>
<stop offset="0.9988" stop-color="#A66ECD"/>
</linearGradient>
<linearGradient id="paint5_linear" x1="18.4143" y1="15.9407" x2="15.2006" y2="54.586" gradientUnits="userSpaceOnUse">
<stop stop-color="#DF7DA4"/>
<stop offset="0.9988" stop-color="#A66ECD"/>
</linearGradient>
<linearGradient id="paint6_linear" x1="75.5454" y1="20.6919" x2="72.3317" y2="59.3371" gradientUnits="userSpaceOnUse">
<stop stop-color="#DF7DA4"/>
<stop offset="0.9988" stop-color="#A66ECD"/>
</linearGradient>
<linearGradient id="paint7_linear" x1="62.6347" y1="19.6182" x2="59.4209" y2="58.2635" gradientUnits="userSpaceOnUse">
<stop stop-color="#DF7DA4"/>
<stop offset="0.9988" stop-color="#A66ECD"/>
</linearGradient>
<linearGradient id="paint8_linear" x1="49.724" y1="18.5445" x2="46.5102" y2="57.1897" gradientUnits="userSpaceOnUse">
<stop stop-color="#DF7DA4"/>
<stop offset="0.9988" stop-color="#A66ECD"/>
</linearGradient>
<linearGradient id="paint9_linear" x1="36.8132" y1="17.4709" x2="33.5995" y2="56.1162" gradientUnits="userSpaceOnUse">
<stop stop-color="#DF7DA4"/>
<stop offset="0.9988" stop-color="#A66ECD"/>
</linearGradient>
<linearGradient id="paint10_linear" x1="23.9025" y1="16.3972" x2="20.6888" y2="55.0424" gradientUnits="userSpaceOnUse">
<stop stop-color="#DF7DA4"/>
<stop offset="0.9988" stop-color="#A66ECD"/>
</linearGradient>
<linearGradient id="paint11_linear" x1="82.13" y1="21.2393" x2="78.9162" y2="59.8846" gradientUnits="userSpaceOnUse">
<stop stop-color="#DF7DA4"/>
<stop offset="0.9988" stop-color="#A66ECD"/>
</linearGradient>
<linearGradient id="paint12_linear" x1="69.2193" y1="20.1657" x2="66.0055" y2="58.811" gradientUnits="userSpaceOnUse">
<stop stop-color="#DF7DA4"/>
<stop offset="0.9988" stop-color="#A66ECD"/>
</linearGradient>
<linearGradient id="paint13_linear" x1="56.3085" y1="19.092" x2="53.0948" y2="57.7373" gradientUnits="userSpaceOnUse">
<stop stop-color="#DF7DA4"/>
<stop offset="0.9988" stop-color="#A66ECD"/>
</linearGradient>
<linearGradient id="paint14_linear" x1="43.3978" y1="18.0184" x2="40.1841" y2="56.6637" gradientUnits="userSpaceOnUse">
<stop stop-color="#DF7DA4"/>
<stop offset="0.9988" stop-color="#A66ECD"/>
</linearGradient>
<linearGradient id="paint15_linear" x1="30.4871" y1="16.9447" x2="27.2734" y2="55.5899" gradientUnits="userSpaceOnUse">
<stop stop-color="#DF7DA4"/>
<stop offset="0.9988" stop-color="#A66ECD"/>
</linearGradient>
<linearGradient id="paint16_linear" x1="17.5764" y1="15.8711" x2="14.3627" y2="54.5164" gradientUnits="userSpaceOnUse">
<stop stop-color="#DF7DA4"/>
<stop offset="0.9988" stop-color="#A66ECD"/>
</linearGradient>
<linearGradient id="paint17_linear" x1="74.7942" y1="20.6294" x2="71.5804" y2="59.2745" gradientUnits="userSpaceOnUse">
<stop stop-color="#DF7DA4"/>
<stop offset="0.9988" stop-color="#A66ECD"/>
</linearGradient>
<linearGradient id="paint18_linear" x1="61.8834" y1="19.5557" x2="58.6697" y2="58.2009" gradientUnits="userSpaceOnUse">
<stop stop-color="#DF7DA4"/>
<stop offset="0.9988" stop-color="#A66ECD"/>
</linearGradient>
<linearGradient id="paint19_linear" x1="48.9727" y1="18.482" x2="45.759" y2="57.1272" gradientUnits="userSpaceOnUse">
<stop stop-color="#DF7DA4"/>
<stop offset="0.9988" stop-color="#A66ECD"/>
</linearGradient>
<linearGradient id="paint20_linear" x1="36.062" y1="17.4084" x2="32.8483" y2="56.0536" gradientUnits="userSpaceOnUse">
<stop stop-color="#DF7DA4"/>
<stop offset="0.9988" stop-color="#A66ECD"/>
</linearGradient>
<linearGradient id="paint21_linear" x1="23.1513" y1="16.3347" x2="19.9376" y2="54.9799" gradientUnits="userSpaceOnUse">
<stop stop-color="#DF7DA4"/>
<stop offset="0.9988" stop-color="#A66ECD"/>
</linearGradient>
<linearGradient id="paint22_linear" x1="81.3661" y1="21.1759" x2="78.1524" y2="59.8211" gradientUnits="userSpaceOnUse">
<stop stop-color="#DF7DA4"/>
<stop offset="0.9988" stop-color="#A66ECD"/>
</linearGradient>
<linearGradient id="paint23_linear" x1="68.4554" y1="20.1023" x2="65.2416" y2="58.7475" gradientUnits="userSpaceOnUse">
<stop stop-color="#DF7DA4"/>
<stop offset="0.9988" stop-color="#A66ECD"/>
</linearGradient>
<linearGradient id="paint24_linear" x1="55.5447" y1="19.0286" x2="52.3309" y2="57.6738" gradientUnits="userSpaceOnUse">
<stop stop-color="#DF7DA4"/>
<stop offset="0.9988" stop-color="#A66ECD"/>
</linearGradient>
<linearGradient id="paint25_linear" x1="42.6339" y1="17.955" x2="39.4202" y2="56.6002" gradientUnits="userSpaceOnUse">
<stop stop-color="#DF7DA4"/>
<stop offset="0.9988" stop-color="#A66ECD"/>
</linearGradient>
<linearGradient id="paint26_linear" x1="29.7232" y1="16.8813" x2="26.5095" y2="55.5265" gradientUnits="userSpaceOnUse">
<stop stop-color="#DF7DA4"/>
<stop offset="0.9988" stop-color="#A66ECD"/>
</linearGradient>
<linearGradient id="paint27_linear" x1="16.8125" y1="15.8077" x2="13.5988" y2="54.4529" gradientUnits="userSpaceOnUse">
<stop stop-color="#DF7DA4"/>
<stop offset="0.9988" stop-color="#A66ECD"/>
</linearGradient>
<linearGradient id="paint28_linear" x1="73.9557" y1="20.5596" x2="70.7419" y2="59.2048" gradientUnits="userSpaceOnUse">
<stop stop-color="#DF7DA4"/>
<stop offset="0.9988" stop-color="#A66ECD"/>
</linearGradient>
<linearGradient id="paint29_linear" x1="61.0449" y1="19.4859" x2="57.8312" y2="58.1311" gradientUnits="userSpaceOnUse">
<stop stop-color="#DF7DA4"/>
<stop offset="0.9988" stop-color="#A66ECD"/>
</linearGradient>
<linearGradient id="paint30_linear" x1="48.1342" y1="18.4122" x2="44.9205" y2="57.0574" gradientUnits="userSpaceOnUse">
<stop stop-color="#DF7DA4"/>
<stop offset="0.9988" stop-color="#A66ECD"/>
</linearGradient>
<linearGradient id="paint31_linear" x1="35.2235" y1="17.3386" x2="32.0098" y2="55.9838" gradientUnits="userSpaceOnUse">
<stop stop-color="#DF7DA4"/>
<stop offset="0.9988" stop-color="#A66ECD"/>
</linearGradient>
<linearGradient id="paint32_linear" x1="22.3128" y1="16.2649" x2="19.0991" y2="54.9101" gradientUnits="userSpaceOnUse">
<stop stop-color="#DF7DA4"/>
<stop offset="0.9988" stop-color="#A66ECD"/>
</linearGradient>
<clipPath id="clip0">
<rect width="77.9" height="40.9" fill="white" transform="translate(9 18)"/>
</clipPath>
</defs>
</svg>
